<?xml version="1.0" encoding="UTF-8" standalone="no"?><!DOCTYPE svg PUBLIC "-//W3C//DTD SVG 1.1//EN" "http://www.w3.org/Graphics/SVG/1.1/DTD/svg11.dtd"><svg width="100%" height="100%" viewBox="0 0 8000 1667" version="1.1" xmlns="http://www.w3.org/2000/svg" xmlns:xlink="http://www.w3.org/1999/xlink" xml:space="preserve" xmlns:serif="http://www.serif.com/" style="fill-rule:evenodd;clip-rule:evenodd;stroke-linejoin:round;stroke-miterlimit:2;"><rect id="Artboard1" x="0" y="0" width="8000" height="1666.67" style="fill:#333;"/><g><g><path d="M3254.03,912.789c-3.878,-5.97 -8.207,-11.735 -13.013,-17.235c-8.37,-9.911 -14.95,-20.181 -19.571,-30.549c-4.286,-9.593 -6.459,-19.821 -6.459,-30.398c0,-10.574 2.173,-20.802 6.468,-30.414c4.612,-10.349 11.192,-20.619 19.562,-30.53c4.806,-5.498 9.135,-11.265 13.013,-17.235c23.219,18.298 38.085,46.657 38.085,78.179c0,31.525 -14.866,59.884 -38.085,78.182Zm-58.082,153.432c-22.295,22.294 -52.883,31.806 -82.238,28.259c1.453,-6.887 2.457,-13.944 2.943,-21.148c1.09,-12.949 3.704,-24.889 7.777,-35.507c3.763,-9.843 9.478,-18.638 16.976,-26.14c7.505,-7.501 16.302,-13.215 26.162,-16.987c10.602,-4.065 22.539,-6.679 35.488,-7.766c7.204,-0.486 14.261,-1.493 21.147,-2.943c3.547,29.352 -5.964,59.94 -28.255,82.232Zm-231.617,96.17c-31.522,0 -59.882,-14.863 -78.176,-38.082c5.967,-3.876 11.732,-8.21 17.229,-13.013c9.913,-8.373 20.181,-14.953 30.555,-19.574c9.59,-4.286 19.818,-6.456 30.392,-6.456c10.579,0 20.805,2.17 30.417,6.467c10.349,4.61 20.619,11.19 30.53,19.563c5.497,4.806 11.265,9.134 17.235,13.01c-18.298,23.219 -46.658,38.085 -78.182,38.085Zm-231.617,-96.167c-22.291,-22.295 -31.803,-52.883 -28.256,-82.235c6.889,1.45 13.944,2.457 21.148,2.94c12.949,1.09 24.886,3.704 35.51,7.777c9.84,3.764 18.635,9.478 26.137,16.979c7.501,7.502 13.215,16.297 16.99,26.159c4.062,10.599 6.676,22.539 7.769,35.488c0.483,7.204 1.487,14.259 2.94,21.148c-29.355,3.547 -59.946,-5.965 -82.238,-28.256Zm-96.167,-231.617c0,-31.522 14.866,-59.881 38.085,-78.179c3.878,5.97 8.207,11.737 13.013,17.235c8.37,9.911 14.95,20.181 19.574,30.549c4.283,9.593 6.456,19.821 6.456,30.395c0,10.577 -2.173,20.805 -6.468,30.417c-4.612,10.349 -11.192,20.619 -19.562,30.53c-4.806,5.497 -9.135,11.265 -13.013,17.235c-23.219,-18.298 -38.085,-46.657 -38.085,-78.182Zm96.167,-231.614c19.27,-19.267 44.732,-29 70.242,-29c4.008,0 8.01,0.255 11.996,0.739c-1.453,6.889 -2.457,13.949 -2.94,21.156c-1.093,12.946 -3.707,24.886 -7.78,35.504c-3.764,9.843 -9.478,18.638 -16.979,26.14c-7.502,7.501 -16.294,13.215 -26.162,16.987c-10.599,4.065 -22.533,6.681 -35.479,7.769c-7.207,0.486 -14.265,1.49 -21.154,2.943c-3.547,-29.355 5.965,-59.944 28.256,-82.238Zm231.617,-96.167c31.524,0 59.884,14.866 78.182,38.085c-5.97,3.878 -11.738,8.21 -17.238,13.016c-9.908,8.367 -20.181,14.95 -30.549,19.571c-9.59,4.283 -19.816,6.453 -30.395,6.453c-10.574,0 -20.802,-2.17 -30.414,-6.465c-10.352,-4.609 -20.62,-11.192 -30.527,-19.559c-5.501,-4.806 -11.268,-9.138 -17.238,-13.016c18.297,-23.219 46.657,-38.085 78.179,-38.085Zm208.094,380.046c6.704,15.048 16.046,29.692 27.764,43.529l0.298,0.345c0.801,0.914 1.56,1.85 2.321,2.786c-1.16,0.118 -2.321,0.236 -3.493,0.314l-0.45,0.034c-18.047,1.495 -34.987,5.242 -50.328,11.125c-16.872,6.45 -31.929,16.226 -44.757,29.051c-12.822,12.825 -22.598,27.882 -29.046,44.735c-5.891,15.36 -9.635,32.303 -11.13,50.347l-0.037,0.456c-0.075,1.172 -0.196,2.33 -0.314,3.491c-0.933,-0.762 -1.869,-1.521 -2.78,-2.322l-0.349,-0.298c-13.837,-11.72 -28.483,-21.06 -43.509,-27.755c-16.524,-7.381 -34.113,-11.125 -52.284,-11.125c-18.168,0 -35.76,3.744 -52.262,11.116c-15.045,6.704 -29.692,16.044 -43.532,27.764l-0.345,0.298c-0.911,0.801 -1.847,1.56 -2.783,2.322c-0.118,-1.161 -0.236,-2.319 -0.312,-3.491l-0.036,-0.456c-1.498,-18.044 -5.242,-34.987 -11.125,-50.328c-6.453,-16.872 -16.232,-31.929 -29.054,-44.754l-0.003,-0.003c-12.822,-12.822 -27.882,-22.598 -44.729,-29.043c-15.36,-5.888 -32.3,-9.635 -50.35,-11.13l-0.453,-0.034c-1.172,-0.078 -2.333,-0.196 -3.494,-0.314c0.762,-0.936 1.521,-1.872 2.322,-2.786l0.298,-0.345c11.718,-13.837 21.06,-28.484 27.755,-43.51c7.381,-16.524 11.122,-34.116 11.122,-52.284c0,-18.165 -3.741,-35.755 -11.113,-52.264c-6.704,-15.046 -16.046,-29.692 -27.764,-43.529l-0.298,-0.346c-0.801,-0.914 -1.56,-1.847 -2.322,-2.783c1.161,-0.115 2.322,-0.236 3.494,-0.315l0.453,-0.033c18.05,-1.493 34.99,-5.239 50.328,-11.122c16.869,-6.453 31.929,-16.229 44.754,-29.054c12.825,-12.825 22.601,-27.882 29.048,-44.738c5.889,-15.357 9.633,-32.297 11.131,-50.344l0.036,-0.453c0.076,-1.175 0.194,-2.336 0.312,-3.496c0.936,0.761 1.869,1.523 2.783,2.324l0.345,0.298c13.84,11.72 28.487,21.063 43.513,27.755c16.521,7.381 34.11,11.125 52.281,11.125c18.171,0 35.76,-3.744 52.267,-11.113c15.043,-6.707 29.689,-16.047 43.526,-27.767l0.349,-0.298c0.911,-0.801 1.847,-1.56 2.78,-2.319c0.118,1.161 0.239,2.319 0.314,3.491l0.037,0.453c1.495,18.047 5.239,34.984 11.122,50.328c6.456,16.872 16.232,31.929 29.054,44.754c12.828,12.825 27.885,22.601 44.735,29.045c15.363,5.892 32.306,9.638 50.35,11.131l0.45,0.033c1.172,0.079 2.333,0.2 3.493,0.315c-0.761,0.936 -1.52,1.869 -2.321,2.783l-0.298,0.346c-11.718,13.839 -21.06,28.483 -27.756,43.512c-7.38,16.526 -11.121,34.116 -11.121,52.281c0,18.168 3.741,35.758 11.113,52.265Zm23.523,-283.879c22.291,22.294 31.802,52.883 28.255,82.238c-6.886,-1.453 -13.946,-2.457 -21.153,-2.943c-12.943,-1.088 -24.88,-3.704 -35.501,-7.777c-9.843,-3.764 -18.638,-9.478 -26.14,-16.979c-7.501,-7.502 -13.216,-16.297 -16.988,-26.157c-4.064,-10.601 -6.678,-22.541 -7.768,-35.487c-0.486,-7.204 -1.49,-14.262 -2.943,-21.151c29.358,-3.547 59.946,5.965 82.238,28.256Zm149.384,231.614c0,-53.555 -27.966,-101.162 -70.34,-128.456c10.81,-49.429 -3.077,-103.102 -41.089,-141.113c-38.009,-38.009 -91.681,-51.899 -141.11,-41.084c-27.295,-42.379 -74.905,-70.346 -128.462,-70.346c-53.558,0 -101.168,27.967 -128.459,70.346c-49.432,-10.813 -103.102,3.075 -141.113,41.084c-38.012,38.011 -51.899,91.684 -41.087,141.113c-42.376,27.294 -70.34,74.901 -70.34,128.456c0,53.558 27.961,101.168 70.34,128.459c-10.812,49.432 3.075,103.102 41.087,141.113c29.683,29.684 68.909,44.681 108.217,44.679c11.034,0 22.077,-1.192 32.913,-3.567c27.297,42.365 74.899,70.317 128.442,70.317c53.557,0 101.165,-27.963 128.462,-70.34c49.429,10.813 103.101,-3.077 141.11,-41.089c38.012,-38.011 51.899,-91.681 41.089,-141.113c42.374,-27.294 70.34,-74.901 70.34,-128.459Z" style="fill:url(#_Linear1);"/><path d="M3202.81,735.685c19.259,1.951 36.843,9.41 51.222,20.743c10.152,-15.622 17.112,-32.68 20.962,-50.277c-15.27,-9.835 -32.401,-17.044 -50.789,-20.92c-2.175,18.025 -9.278,35.575 -21.395,50.454Z" style="fill:#502c87;fill-rule:nonzero;"/><path d="M3202.81,735.685c19.259,1.951 36.843,9.41 51.222,20.743c10.152,-15.622 17.112,-32.68 20.962,-50.277c-15.27,-9.835 -32.401,-17.044 -50.789,-20.92c-2.175,18.025 -9.278,35.575 -21.395,50.454Z" style="fill:#502c87;fill-rule:nonzero;"/><path d="M2865.41,1073.09c-14.882,12.114 -32.432,19.219 -50.457,21.395c3.879,18.398 11.094,35.538 20.937,50.811c17.592,-3.848 34.647,-10.832 50.266,-20.982c-11.336,-14.382 -18.795,-31.966 -20.746,-51.224Z" style="fill:#992375;fill-rule:nonzero;"/><path d="M2865.41,1073.09c-14.882,12.114 -32.432,19.219 -50.457,21.395c3.879,18.398 11.094,35.538 20.937,50.811c17.592,-3.848 34.647,-10.832 50.266,-20.982c-11.336,-14.382 -18.795,-31.966 -20.746,-51.224Z" style="fill:#992375;fill-rule:nonzero;"/><path d="M3063.25,1073.09c-1.951,19.256 -9.41,36.839 -20.74,51.221c15.621,10.153 32.682,17.109 50.28,20.962c9.832,-15.27 17.041,-32.401 20.917,-50.788c-18.025,-2.176 -35.575,-9.281 -50.457,-21.395Z" style="fill:#6a2a7d;fill-rule:nonzero;"/><path d="M3063.25,1073.09c-1.951,19.256 -9.41,36.839 -20.74,51.221c15.621,10.153 32.682,17.109 50.28,20.962c9.832,-15.27 17.041,-32.401 20.917,-50.788c-18.025,-2.176 -35.575,-9.281 -50.457,-21.395Z" style="fill:#6a2a7d;fill-rule:nonzero;"/><path d="M3202.81,933.532c12.117,14.879 19.22,32.432 21.395,50.457c18.388,-3.876 35.519,-11.088 50.789,-20.923c-3.85,-17.595 -10.81,-34.655 -20.962,-50.277c-14.379,11.333 -31.963,18.789 -51.222,20.743Z" style="fill:#502c87;fill-rule:nonzero;"/><path d="M3202.81,933.532c12.117,14.879 19.22,32.432 21.395,50.457c18.388,-3.876 35.519,-11.088 50.789,-20.923c-3.85,-17.595 -10.81,-34.655 -20.962,-50.277c-14.379,11.333 -31.963,18.789 -51.222,20.743Z" style="fill:#502c87;fill-rule:nonzero;"/><path d="M3063.25,596.135c14.885,-12.117 32.432,-19.219 50.457,-21.398c-3.876,-18.387 -11.085,-35.515 -20.917,-50.783c-17.598,3.848 -34.659,10.807 -50.28,20.957c11.33,14.382 18.789,31.963 20.74,51.224Z" style="fill:#6a2a7d;fill-rule:nonzero;"/><path d="M3063.25,596.135c14.885,-12.117 32.432,-19.219 50.457,-21.398c-3.876,-18.387 -11.085,-35.515 -20.917,-50.783c-17.598,3.848 -34.659,10.807 -50.28,20.957c11.33,14.382 18.789,31.963 20.74,51.224Z" style="fill:#6a2a7d;fill-rule:nonzero;"/><path d="M2865.41,596.13c1.951,-19.259 9.41,-36.84 20.743,-51.219c-15.622,-10.15 -32.683,-17.109 -50.28,-20.957c-9.835,15.265 -17.044,32.393 -20.92,50.778c18.025,2.175 35.577,9.283 50.457,21.398Z" style="fill:#992375;fill-rule:nonzero;"/><path d="M2865.41,596.13c1.951,-19.259 9.41,-36.84 20.743,-51.219c-15.622,-10.15 -32.683,-17.109 -50.28,-20.957c-9.835,15.265 -17.044,32.393 -20.92,50.778c18.025,2.175 35.577,9.283 50.457,21.398Z" style="fill:#992375;fill-rule:nonzero;"/><path d="M2725.85,735.685c-12.114,-14.879 -19.219,-32.429 -21.395,-50.454c-18.387,3.876 -35.515,11.085 -50.786,20.92c3.851,17.597 10.807,34.655 20.96,50.277c14.379,-11.33 31.963,-18.792 51.221,-20.743Z" style="fill:#b71e74;fill-rule:nonzero;"/><path d="M2725.85,735.685c-12.114,-14.879 -19.219,-32.429 -21.395,-50.454c-18.387,3.876 -35.515,11.085 -50.786,20.92c3.851,17.597 10.807,34.655 20.96,50.277c14.379,-11.33 31.963,-18.792 51.221,-20.743Z" style="fill:#b71e74;fill-rule:nonzero;"/><path d="M2725.85,933.532c-19.258,-1.954 -36.842,-9.41 -51.221,-20.743c-10.153,15.622 -17.109,32.682 -20.96,50.277c15.271,9.838 32.399,17.047 50.786,20.923c2.176,-18.025 9.281,-35.578 21.395,-50.457Z" style="fill:#b71e74;fill-rule:nonzero;"/><path d="M2725.85,933.532c-19.258,-1.954 -36.842,-9.41 -51.221,-20.743c-10.153,15.622 -17.109,32.682 -20.96,50.277c15.271,9.838 32.399,17.047 50.786,20.923c2.176,-18.025 9.281,-35.578 21.395,-50.457Z" style="fill:#b71e74;fill-rule:nonzero;"/></g><g><path d="M4844.17,714.179c-30.427,0 -59.056,12.033 -80.606,33.885c-21.649,21.952 -33.57,51.165 -33.57,82.259c0,31.094 11.921,60.307 33.57,82.257c21.55,21.854 50.179,33.887 80.606,33.887c30.425,0 59.054,-12.033 80.604,-33.887c21.649,-21.95 33.57,-51.163 33.57,-82.257c0,-31.094 -11.921,-60.307 -33.57,-82.259c-21.55,-21.852 -50.179,-33.885 -80.604,-33.885Zm0,285.97c-22.694,0 -44.723,-4.512 -65.47,-13.411c-20.002,-8.579 -37.952,-20.845 -53.358,-36.465c-15.376,-15.589 -27.448,-33.744 -35.881,-53.963c-8.727,-20.915 -13.152,-43.121 -13.152,-65.987c0,-22.869 4.425,-45.072 13.152,-65.99c8.433,-20.216 20.505,-38.371 35.881,-53.963c15.406,-15.617 33.356,-27.884 53.358,-36.462c20.747,-8.897 42.776,-13.411 65.47,-13.411c22.692,0 44.721,4.514 65.468,13.411c20.002,8.578 37.952,20.845 53.355,36.462c15.378,15.592 27.451,33.747 35.884,53.963c8.724,20.918 13.152,43.121 13.152,65.99c0,22.866 -4.428,45.072 -13.152,65.987c-8.433,20.219 -20.506,38.374 -35.884,53.963c-15.403,15.62 -33.353,27.886 -53.355,36.465c-20.747,8.899 -42.776,13.411 -65.468,13.411Z" style="fill:#fff;fill-rule:nonzero;"/><path d="M5312.96,993.588l-0.002,-179.515c0,-26.663 -10.432,-51.733 -29.368,-70.597c-18.968,-18.891 -44.198,-29.294 -71.036,-29.294c-26.835,0 -52.065,10.403 -71.033,29.294c-18.936,18.864 -29.367,43.934 -29.367,70.595l0.002,179.517l-53.684,0l0,-179.515c0,-20.735 4.081,-40.861 12.134,-59.823c7.77,-18.293 18.884,-34.714 33.034,-48.807c14.144,-14.086 30.618,-25.149 48.964,-32.879c19.005,-8.005 39.175,-12.064 59.95,-12.064c20.778,0 40.949,4.059 59.953,12.064c18.346,7.73 34.82,18.793 48.962,32.879c14.155,14.093 25.267,30.514 33.036,48.807c8.053,18.962 12.134,39.088 12.134,59.821l0.003,179.517l-53.682,0Z" style="fill:#fff;fill-rule:nonzero;"/><rect x="3802.87" y="667.063" width="53.679" height="326.528" style="fill:#fff;fill-rule:nonzero;"/><path d="M3861.85,564.9c0,17.751 -14.389,32.14 -32.139,32.14c-17.751,0 -32.14,-14.389 -32.14,-32.14c0,-17.75 14.389,-32.139 32.14,-32.139c17.75,0 32.139,14.389 32.139,32.139Z" style="fill:#fff;fill-rule:nonzero;"/><path d="M3593.72,993.591l-53.682,0l0,-176.712c0,-20.216 3.966,-39.838 11.786,-58.328c7.547,-17.843 18.346,-33.862 32.097,-47.613c13.75,-13.748 29.77,-24.547 47.613,-32.094c18.487,-7.82 38.112,-11.786 58.325,-11.786l60.821,0l0,53.681l-60.821,0c-53.01,0 -96.139,43.127 -96.139,96.14l0,176.712Z" style="fill:#fff;fill-rule:nonzero;"/><path d="M4236.86,768.768c-8.388,-19.836 -20.396,-37.643 -35.681,-52.928c-15.288,-15.288 -33.095,-27.293 -52.928,-35.684c-20.55,-8.691 -42.362,-13.098 -64.838,-13.098l-104.94,0c-4.368,0 -7.921,-3.553 -7.921,-7.896l0.096,-102.059l-53.682,-0.051l-0.096,102.085c0,33.969 27.634,61.602 61.603,61.602l104.94,0c30.149,0 58.491,11.741 79.809,33.056c21.317,21.317 33.058,49.659 33.058,79.808c0,30.147 -11.741,58.488 -33.058,79.806c-21.318,21.314 -49.66,33.055 -79.809,33.055c-30.143,0 -58.488,-11.741 -79.803,-33.055c-20.8,-20.798 -32.479,-48.288 -33.038,-77.611l0,-84.505c-29.646,0 -53.682,24.036 -53.682,53.682l0,1.787l-0.02,0l0,26.841c0,22.47 4.408,44.282 13.099,64.832c8.39,19.839 20.395,37.646 35.681,52.931c15.285,15.289 33.095,27.291 52.931,35.681c20.547,8.691 42.362,13.102 64.832,13.102c22.476,0 44.288,-4.411 64.838,-13.102c19.833,-8.39 37.64,-20.392 52.928,-35.681c15.285,-15.285 27.293,-33.092 35.681,-52.931c8.691,-20.55 13.099,-42.362 13.099,-64.832c0,-22.473 -4.408,-44.288 -13.099,-64.835Z" style="fill:#fff;fill-rule:nonzero;"/><path d="M4615.99,768.768c-8.388,-19.836 -20.393,-37.643 -35.678,-52.928c-15.288,-15.288 -33.098,-27.293 -52.931,-35.684c-20.55,-8.691 -42.365,-13.098 -64.835,-13.098l-104.943,0c-4.365,0 -7.921,-3.553 -7.921,-7.896l0.095,-102.059l-53.681,-0.051l-0.096,102.085c0,33.969 27.637,61.602 61.603,61.602l104.943,0c30.146,0 58.491,11.741 79.805,33.056c21.318,21.317 33.059,49.659 33.059,79.808c0,30.147 -11.741,58.488 -33.059,79.806c-21.314,21.314 -49.659,33.055 -79.805,33.055c-30.147,0 -58.488,-11.741 -79.806,-33.055c-20.8,-20.798 -32.479,-48.288 -33.036,-77.611l0,-84.505c-29.649,0 -53.681,24.036 -53.681,53.682l0,1.787l-0.023,0l0,26.841c0,22.47 4.411,44.282 13.099,64.832c8.39,19.839 20.395,37.646 35.683,52.931c15.286,15.289 33.093,27.291 52.929,35.681c20.55,8.691 42.362,13.102 64.835,13.102c22.47,0 44.285,-4.411 64.835,-13.102c19.833,-8.39 37.643,-20.392 52.931,-35.681c15.285,-15.285 27.29,-33.092 35.678,-52.931c8.694,-20.55 13.098,-42.362 13.098,-64.832c0,-22.473 -4.404,-44.288 -13.098,-64.835Z" style="fill:#fff;fill-rule:nonzero;"/><path d="M5408.34,692.029c-1.374,3.37 -3.21,6.291 -5.664,8.849c-2.451,2.555 -5.293,4.663 -8.601,6.172c-3.384,1.513 -6.934,2.345 -10.805,2.426c-3.87,0.079 -7.451,-0.607 -10.819,-1.979c-3.37,-1.374 -6.293,-3.21 -8.773,-5.664c-2.555,-2.453 -4.511,-5.298 -6.02,-8.606c-1.513,-3.309 -2.269,-6.862 -2.345,-10.578c-0.075,-3.718 0.532,-7.299 1.906,-10.667c1.372,-3.367 3.207,-6.366 5.661,-8.921c2.451,-2.558 5.296,-4.59 8.68,-6.1c3.308,-1.512 6.859,-2.344 10.729,-2.423c3.871,-0.081 7.449,0.529 10.819,1.9c3.368,1.375 6.291,3.289 8.846,5.74c2.482,2.454 4.438,5.299 5.948,8.607c1.509,3.308 2.265,6.861 2.344,10.58c0.076,3.716 -0.534,7.297 -1.906,10.664Zm-3.3,-20.123c-1.352,-2.931 -3.072,-5.478 -5.242,-7.634c-2.246,-2.156 -4.784,-3.772 -7.772,-5c-2.985,-1.232 -6.26,-1.771 -9.675,-1.701c-3.491,0.073 -6.665,0.745 -9.596,2.097c-2.935,1.352 -5.476,3.224 -7.632,5.47c-2.153,2.246 -3.769,4.86 -4.924,7.845c-1.229,2.985 -1.768,6.187 -1.698,9.599c0.07,3.415 0.742,6.513 2.015,9.447c1.277,2.935 2.999,5.481 5.245,7.635c2.246,2.155 4.86,3.848 7.845,5.076c2.988,1.228 6.187,1.771 9.602,1.7c3.489,-0.073 6.738,-0.823 9.67,-2.172c2.934,-1.352 5.402,-3.148 7.555,-5.394c2.156,-2.246 3.769,-4.936 5.001,-7.921c1.152,-2.985 1.695,-6.108 1.624,-9.523c-0.07,-3.416 -0.742,-6.589 -2.018,-9.524Zm-10.878,9.942c-1.107,1.465 -2.603,2.634 -4.486,3.357l7.35,10.324l-7.513,0.154l-6.414,-9.281l-5.085,0.104l0.194,9.411l-6.451,0.132l-0.602,-29.213l12.975,-0.267c3.491,-0.073 6.316,0.705 8.399,2.333c2.086,1.7 3.196,4.033 3.258,7.066c0.05,2.429 -0.517,4.413 -1.625,5.88Zm-6.327,-8.601c-0.922,-0.663 -2.221,-1.015 -3.814,-0.984l-6.299,0.133l0.177,8.573l6.45,-0.133c1.594,-0.033 2.876,-0.441 3.694,-1.292c0.818,-0.776 1.254,-1.771 1.225,-3.062c-0.028,-1.441 -0.508,-2.569 -1.433,-3.235Z" style="fill:#fff;fill-rule:nonzero;"/></g></g><defs><linearGradient id="_Linear1" x1="0" y1="0" x2="1" y2="0" gradientUnits="userSpaceOnUse" gradientTransform="matrix(762,0,0,762,2583.33,834.607)"><stop offset="0" style="stop-color:#ed167f;stop-opacity:1"/><stop offset="0.2" style="stop-color:#e4068b;stop-opacity:1"/><stop offset="1" style="stop-color:#753c97;stop-opacity:1"/></linearGradient></defs></svg>