<svg width="889" height="500" viewBox="0 0 889 500" fill="none" xmlns="http://www.w3.org/2000/svg">
<path d="M8.01831 19.7609C18.4352 22.2119 27.7477 27.4126 38.3976 29.7096C113.128 45.828 192.205 46.7489 268.285 49.0742C344.852 51.4144 421.696 50.6193 498.262 48.4524C585.861 45.9732 672.315 35.7099 759.683 30.5979C769.202 30.041 779.551 29.3087 788.641 26.5118C795.528 24.3928 804.457 26.4981 811.559 26.0677C828.889 25.0174 846.047 24.5576 863.435 24.5576M28.8041 483.444C47.7179 476.014 69.7747 474.534 89.7403 472.607C164.772 465.366 240.568 462.149 315.897 460.171C394.216 458.115 472.589 454.977 550.937 454.664C607.633 454.438 664.563 453.47 721.132 457.862C773.846 461.955 826.539 467.455 879.424 467.455M810.671 13.3652C806.182 85.1783 811.838 156.704 808.716 228.507C805.965 291.795 805.874 355.327 805.874 418.689C805.874 432.234 809.018 449.34 814.668 461.77C817.271 467.496 821.863 477.362 821.863 483.444M38.3976 13.3652C38.3976 26.6238 40.7317 39.132 42.4837 52.272C48.9504 100.773 53.2418 149.429 56.785 198.217C60.4993 249.36 57.7196 300.331 68.7769 350.38C78.9146 396.266 70.3758 443.549 70.3758 489.84" stroke="black" stroke-width="8" stroke-linecap="round"/>
</svg>
