<svg width="889" height="500" viewBox="0 0 889 500" fill="none" xmlns="http://www.w3.org/2000/svg">
<path d="M268.285 49.0742C192.556 46.7597 113.859 45.8366 39.4343 29.9322C40.2724 37.3453 41.4746 44.7039 42.4837 52.272C48.9504 100.773 53.2418 149.429 56.785 198.217C60.4993 249.36 57.7196 300.331 68.7769 350.38C77.7949 391.198 72.0341 433.121 70.6516 474.469C77.1118 473.763 83.5273 473.207 89.7403 472.607C164.772 465.366 240.568 462.149 315.897 460.171C394.216 458.115 472.589 454.977 550.937 454.664C607.633 454.438 664.563 453.47 721.132 457.862C752.831 460.323 784.522 463.293 816.252 465.27C815.794 464.245 815.354 463.277 814.951 462.393L814.668 461.77C809.018 449.34 805.874 432.234 805.874 418.689C805.874 355.327 805.965 291.795 808.716 228.507C811.653 160.957 806.822 93.653 809.976 26.124C803.164 26.2132 795.025 24.5475 788.641 26.5118C779.551 29.3087 769.202 30.041 759.683 30.5979C672.315 35.7099 585.861 45.9732 498.262 48.4524C421.696 50.6193 344.852 51.4144 268.285 49.0742Z" fill="white"/>
</svg>
