<svg width="389" height="211" viewBox="0 0 389 211" fill="none" xmlns="http://www.w3.org/2000/svg">
<path d="M382.888 16.264C383.073 13.3513 383.53 10.4483 383.96 7.54114C380.935 7.60744 377.827 7.79184 374.952 8.29187C369.5 9.24008 362.896 10.7228 357.399 10.7228C344.433 10.7228 331.524 13.9024 318.611 14.548C306.129 15.1721 293.676 15.8707 281.146 15.8707C261.475 15.8707 242.369 14.2838 222.803 12.6533C195.021 10.3382 167.354 7.92903 139.506 6.89764L138.497 6.86027C104.818 5.61303 71.2118 4.36846 37.6205 1.85697C29.441 1.24542 21.0135 1.07048 12.8104 1.07048C9.34077 1.07048 5.61338 0.450573 2.51459 1.99997C-1.40958 3.96206 0.584126 5.45564 0.584126 9.14985C0.584126 12.5099 1.67345 17.0337 2.65759 20.2322C6.21096 31.7806 6.37553 44.4107 6.37553 56.4463C6.37553 66.2781 5.07394 75.9385 4.48081 85.7251C3.85079 96.1205 4.90016 106.537 5.08855 116.899C5.17679 121.752 6.02216 127.074 7.16202 131.77C9.14289 139.932 7.01615 147.187 5.73204 155.365C3.7448 168.021 1.8716 183.309 4.76681 196.048C5.66053 199.98 5.45005 206.339 10.2365 207.023C15.2905 207.745 20.1426 208.274 25.3942 208.274C48.9788 208.274 72.4265 204.58 95.9278 203.198C112.848 202.202 130.123 203.126 147.085 203.126C164.607 203.126 182.117 202.634 199.565 204.127C214.087 205.37 229.244 204.987 243.823 205.057C251.924 205.096 259.929 205.476 267.99 206.201C274.5 206.786 280.864 207.058 287.366 207.774C298.442 208.992 309.316 210.848 320.506 210.848C340.368 210.848 360.901 210.489 380.207 205.378C382.389 204.801 384.747 204.549 384.747 202.09V192.187C384.747 187.521 384.875 183.144 385.534 178.531C386.241 173.582 387.292 168.41 387.965 163.5C388.882 156.803 388.428 149.773 387.965 143C387.405 134.813 387.965 127.261 387.965 119.079C387.965 94.8078 384.886 70.6461 384.14 46.4008C383.83 36.3235 382.246 26.3866 382.888 16.264Z" fill="white"/>
</svg>
