<svg width="397" height="219" viewBox="0 0 397 219" fill="none" xmlns="http://www.w3.org/2000/svg">
<path d="M388.747 5.07048C388.356 10.1541 387.21 15.1945 386.888 20.264C386.246 30.3866 387.83 40.3235 388.14 50.4008C388.886 74.6461 391.965 98.8078 391.965 123.079C391.965 131.261 391.405 138.813 391.965 147C392.428 153.773 392.882 160.803 391.965 167.5C391.292 172.41 390.241 177.582 389.534 182.531C388.875 187.144 388.747 191.521 388.747 196.187C388.747 199.488 388.747 202.789 388.747 206.09C388.747 208.549 386.389 208.801 384.207 209.378C364.901 214.489 344.368 214.848 324.506 214.848C313.316 214.848 302.442 212.992 291.366 211.774C284.864 211.058 278.5 210.786 271.99 210.201C263.929 209.476 255.924 209.096 247.823 209.057C233.244 208.987 218.087 209.37 203.565 208.127C186.117 206.634 168.607 207.126 151.085 207.126C134.123 207.126 116.848 206.202 99.9278 207.198C76.4265 208.58 52.9788 212.274 29.3942 212.274C24.1426 212.274 19.2905 211.745 14.2365 211.023C9.45005 210.339 9.66053 203.98 8.76681 200.048C5.8716 187.309 7.7448 172.021 9.73204 159.365C11.0162 151.187 13.1429 143.932 11.162 135.77C10.0222 131.074 9.17679 125.752 9.08855 120.899C8.90016 110.537 7.85079 100.12 8.48081 89.7251C9.07394 79.9385 10.3755 70.2781 10.3755 60.4463C10.3755 48.4107 10.211 35.7806 6.65759 24.2322C5.67345 21.0337 4.58413 16.5099 4.58413 13.1499C4.58413 9.45564 2.59042 7.96206 6.51459 5.99997C9.61338 4.45057 13.3408 5.07048 16.8104 5.07048C25.0135 5.07048 33.441 5.24542 41.6205 5.85697C75.5472 8.39355 109.49 9.63776 143.506 10.8976C171.354 11.929 199.021 14.3382 226.803 16.6533C246.369 18.2838 265.475 19.8707 285.146 19.8707C297.676 19.8707 310.129 19.1721 322.611 18.548C335.524 17.9024 348.433 14.7228 361.399 14.7228C366.896 14.7228 373.5 13.2401 378.952 12.2919C383.121 11.5668 387.78 11.5054 391.965 11.5054" stroke="black" stroke-width="8" stroke-linecap="round"/>
</svg>
