<svg width="382" height="214" viewBox="0 0 382 214" fill="none" xmlns="http://www.w3.org/2000/svg">
<path d="M7.85832 193.73C7.81951 197.359 7.21792 200.739 6.55822 204.127C8.18716 204.889 9.78121 205.692 11.2188 206.171C15.9308 207.742 20.7619 210.499 25.5 211.176C32.5303 212.18 37.2418 211.5 44.5 211.5C52.2219 211.5 60.5887 213.142 68.3106 213.142C84.9903 213.142 102.799 213.75 119.504 213.75H147.996C158.819 213.75 169.188 213.142 180 213.142C194.999 213.142 209.76 213.75 224.679 213.75H249.31C257.886 213.75 265.965 213.142 274.5 213.142H324.5C331.55 213.142 338.85 211 346 211C351.496 211 357.257 212.613 362.5 211C364.306 210.444 374.744 210.677 375.255 208.888C375.994 206.302 377.714 202.804 377.865 200.236C379.144 178.488 379.443 156.574 379.795 134.744C379.905 127.945 381.082 121.13 381.082 114.295C381.082 103.69 380.907 93.1702 380.403 82.5851C380.153 77.3305 378.538 71.8695 377.865 66.6051C377.018 59.9793 376.24 53.4665 374.79 46.9429C372.512 36.689 371.404 25.9436 370 15.5549C369.839 14.3614 368.907 3.26475 367.569 4.93737C366.392 6.40832 361.873 6.84466 360.169 7.51133C356.381 8.9936 352.154 8.65946 348.121 8.33357C341.248 7.77814 334.426 7.18958 327.53 7.18958C305.62 7.18958 283.811 -1.62251 261.751 1.71992C253.026 3.0418 243.809 1.68543 235.01 2.18466C219.671 3.055 204.314 3.44411 188.965 4.11513C159.521 5.40229 130.113 5.9026 100.628 5.9026C82.2532 5.9026 63.5027 7.75416 45.145 6.22435C34.7203 5.35562 24.1101 5.9026 13.6497 5.9026C12.2594 5.9026 8.29996 5.06511 7.71532 6.68909C7.24095 8.0068 7.24581 9.32012 6.57134 10.55C5.04734 13.3291 5.32851 16.7515 4.03313 19.6661C3.15002 21.6531 2.96315 23.7111 2.38866 25.7793C1.20611 30.0365 2.20957 30.7136 3.96163 35.1814C5.69254 39.5952 7.96955 43.8107 9.64579 48.2299C10.0117 49.1945 10.4323 49.8963 10.4323 50.9469C10.4323 57.2436 9.90127 63.3422 9.2883 69.6081C8.6494 76.1391 8.82476 82.7217 8.14432 89.2345C7.47534 95.6376 5.73941 101.83 4.96262 108.217L4.94071 108.398C3.59475 119.464 2.307 130.052 2.74615 141.25C3.16982 152.054 5.45134 162.272 7.21483 172.852C8.35233 179.677 7.93197 186.844 7.85832 193.73Z" fill="white"/>
</svg>
