<svg width="390" height="222" viewBox="0 0 390 222" fill="none" xmlns="http://www.w3.org/2000/svg">
<path d="M9.28436 215.176C10.1315 209.246 11.793 203.841 11.8583 197.73C11.932 190.844 12.3523 183.677 11.2148 176.852C9.45135 166.272 7.16982 156.054 6.74615 145.25C6.30462 133.991 7.60877 123.349 8.96262 112.217C9.73941 105.83 11.4753 99.6376 12.1443 93.2345C12.8248 86.7217 12.6494 80.1391 13.2883 73.6081C13.9013 67.3422 14.4323 61.2436 14.4323 54.9469C14.4323 53.8963 14.0117 53.1945 13.6458 52.2299C11.9695 47.8107 9.69254 43.5952 7.96163 39.1814C6.20957 34.7136 5.20611 34.0365 6.38866 29.7793C6.96315 27.7111 7.15002 25.6531 8.03313 23.6661C9.32851 20.7515 9.04734 17.3291 10.5713 14.55C11.2458 13.3201 11.2409 12.0068 11.7153 10.6891C12.3 9.06511 16.2594 9.9026 17.6497 9.9026C28.1101 9.9026 38.7203 9.35562 49.145 10.2243C67.5027 11.7542 86.2532 9.9026 104.628 9.9026C134.113 9.9026 163.521 9.40229 192.965 8.11513C208.314 7.44411 223.67 7.055 239.01 6.18466C247.809 5.68543 257.026 7.0418 265.751 5.71992C287.811 2.37749 309.62 11.1896 331.53 11.1896C338.426 11.1896 345.248 11.7781 352.121 12.3336C356.154 12.6595 360.381 12.9936 364.169 11.5113C365.873 10.8447 370.392 10.4083 371.569 8.93737C372.907 7.26475 373.839 18.3614 374 19.5549C375.404 29.9436 376.512 40.689 378.79 50.9429C380.24 57.4665 381.018 63.9793 381.865 70.6051C382.538 75.8695 384.153 81.3305 384.403 86.5851C384.907 97.1702 385.082 107.69 385.082 118.295C385.082 125.13 383.905 131.945 383.795 138.744C383.443 160.574 383.144 182.488 381.865 204.236C381.714 206.804 379.994 210.302 379.255 212.888C378.744 214.677 368.306 214.444 366.5 215C361.257 216.613 355.496 215 350 215C342.85 215 335.55 217.142 328.5 217.142C311.364 217.142 295.542 217.142 278.5 217.142C269.965 217.142 261.886 217.75 253.31 217.75C245.099 217.75 236.889 217.75 228.679 217.75C213.76 217.75 198.999 217.142 184 217.142C173.188 217.142 162.819 217.75 151.996 217.75C142.499 217.75 133.001 217.75 123.504 217.75C106.799 217.75 88.9903 217.142 72.3106 217.142C64.5887 217.142 56.2219 215.5 48.5 215.5C41.2418 215.5 36.5303 216.18 29.5 215.176C24.7619 214.499 19.9308 211.742 15.2188 210.171C11.8618 209.052 7.65142 206.167 4.13644 206.167" stroke="black" stroke-width="8" stroke-linecap="round"/>
</svg>
