<?xml version="1.0" encoding="UTF-8" standalone="no"?><!DOCTYPE svg PUBLIC "-//W3C//DTD SVG 1.1//EN" "http://www.w3.org/Graphics/SVG/1.1/DTD/svg11.dtd"><svg width="100%" height="100%" viewBox="0 0 2917 1875" version="1.1" xmlns="http://www.w3.org/2000/svg" xmlns:xlink="http://www.w3.org/1999/xlink" xml:space="preserve" xmlns:serif="http://www.serif.com/" style="fill-rule:evenodd;clip-rule:evenodd;stroke-linejoin:round;stroke-miterlimit:2;"><g><rect x="-25.183" y="-57.436" width="2967.03" height="1989.87" style="fill:#333;"/><path d="M1909.89,1059.36c-6.046,-9.305 -12.793,-18.291 -20.284,-26.864c-13.047,-15.448 -23.303,-31.456 -30.505,-47.617c-6.681,-14.953 -10.068,-30.895 -10.068,-47.381c0,-16.482 3.387,-32.424 10.081,-47.407c7.189,-16.131 17.445,-32.139 30.492,-47.587c7.491,-8.569 14.238,-17.559 20.284,-26.864c36.191,28.52 59.363,72.725 59.363,121.858c0,49.137 -23.172,93.342 -59.363,121.862Zm-90.534,239.155c-34.75,34.751 -82.429,49.576 -128.184,44.047c2.265,-10.733 3.829,-21.734 4.587,-32.963c1.7,-20.183 5.774,-38.793 12.122,-55.345c5.866,-15.342 14.773,-29.05 26.461,-40.743c11.698,-11.693 25.41,-20.6 40.779,-26.479c16.525,-6.335 35.131,-10.41 55.315,-12.105c11.228,-0.758 22.229,-2.326 32.962,-4.587c5.529,45.751 -9.296,93.43 -44.042,128.175Zm-361.022,149.901c-49.133,0 -93.337,-23.167 -121.853,-59.358c9.3,-6.042 18.286,-12.797 26.855,-20.284c15.452,-13.051 31.456,-23.307 47.626,-30.51c14.948,-6.681 30.891,-10.063 47.372,-10.063c16.49,0 32.428,3.382 47.412,10.081c16.13,7.185 32.139,17.441 47.586,30.492c8.569,7.491 17.559,14.238 26.864,20.28c-28.52,36.191 -72.724,59.362 -121.862,59.362Zm-361.022,-149.896c-34.746,-34.75 -49.571,-82.429 -44.042,-128.18c10.738,2.261 21.734,3.829 32.963,4.583c20.183,1.699 38.789,5.774 55.349,12.122c15.338,5.866 29.046,14.773 40.739,26.466c11.693,11.693 20.6,25.401 26.484,40.774c6.33,16.521 10.405,35.131 12.109,55.314c0.753,11.229 2.317,22.225 4.582,32.963c-45.755,5.529 -93.438,-9.296 -128.184,-44.042Zm-149.896,-361.022c0,-49.133 23.171,-93.338 59.362,-121.858c6.046,9.305 12.793,18.295 20.285,26.864c13.046,15.448 23.302,31.456 30.509,47.618c6.677,14.952 10.063,30.894 10.063,47.376c0,16.486 -3.386,32.428 -10.081,47.411c-7.189,16.131 -17.445,32.139 -30.491,47.587c-7.492,8.569 -14.239,17.559 -20.285,26.864c-36.191,-28.52 -59.362,-72.725 -59.362,-121.862Zm149.896,-361.018c30.036,-30.032 69.724,-45.203 109.486,-45.203c6.247,0 12.486,0.399 18.698,1.152c-2.265,10.738 -3.829,21.743 -4.582,32.976c-1.704,20.179 -5.779,38.79 -12.127,55.341c-5.866,15.342 -14.773,29.05 -26.466,40.743c-11.693,11.693 -25.396,20.6 -40.778,26.479c-16.521,6.335 -35.123,10.414 -55.302,12.109c-11.233,0.758 -22.233,2.322 -32.971,4.587c-5.529,-45.755 9.296,-93.434 44.042,-128.184Zm361.022,-149.896c49.138,0 93.342,23.171 121.862,59.363c-9.305,6.045 -18.295,12.796 -26.868,20.288c-15.443,13.042 -31.456,23.303 -47.618,30.505c-14.948,6.677 -30.886,10.059 -47.376,10.059c-16.481,0 -32.424,-3.382 -47.407,-10.077c-16.135,-7.184 -32.139,-17.445 -47.582,-30.487c-8.574,-7.492 -17.564,-14.243 -26.869,-20.288c28.521,-36.192 72.725,-59.363 121.858,-59.363Zm324.357,592.379c10.449,23.456 25.012,46.281 43.276,67.849l0.464,0.538c1.249,1.424 2.432,2.883 3.619,4.342c-1.809,0.184 -3.619,0.368 -5.445,0.491l-0.701,0.052c-28.131,2.331 -54.535,8.171 -78.447,17.34c-26.299,10.055 -49.768,25.292 -69.763,45.283c-19.986,19.99 -35.223,43.459 -45.274,69.728c-9.182,23.942 -15.018,50.351 -17.348,78.477l-0.057,0.71c-0.119,1.827 -0.307,3.632 -0.491,5.441c-1.454,-1.187 -2.913,-2.37 -4.333,-3.619l-0.543,-0.464c-21.568,-18.269 -44.397,-32.827 -67.818,-43.263c-25.756,-11.504 -53.173,-17.34 -81.496,-17.34c-28.319,0 -55.74,5.836 -81.46,17.327c-23.452,10.449 -46.282,25.007 -67.854,43.276l-0.539,0.464c-1.419,1.249 -2.878,2.432 -4.337,3.619c-0.184,-1.809 -0.368,-3.614 -0.486,-5.441l-0.057,-0.71c-2.335,-28.126 -8.171,-54.535 -17.34,-78.447c-10.059,-26.299 -25.3,-49.768 -45.287,-69.758l-0.004,-0.005c-19.986,-19.986 -43.46,-35.223 -69.719,-45.269c-23.943,-9.178 -50.347,-15.018 -78.482,-17.349l-0.705,-0.052c-1.827,-0.123 -3.637,-0.307 -5.446,-0.491c1.187,-1.459 2.37,-2.918 3.619,-4.342l0.464,-0.538c18.265,-21.568 32.827,-44.398 43.263,-67.819c11.504,-25.756 17.335,-53.176 17.335,-81.495c0,-28.315 -5.831,-55.731 -17.322,-81.465c-10.449,-23.452 -25.011,-46.281 -43.276,-67.849l-0.464,-0.539c-1.249,-1.424 -2.432,-2.878 -3.619,-4.337c1.809,-0.18 3.619,-0.368 5.446,-0.491l0.705,-0.052c28.135,-2.327 54.539,-8.167 78.446,-17.336c26.295,-10.059 49.769,-25.296 69.759,-45.287c19.991,-19.99 35.228,-43.459 45.278,-69.732c9.178,-23.938 15.014,-50.342 17.349,-78.473l0.057,-0.705c0.118,-1.832 0.302,-3.641 0.486,-5.45c1.459,1.187 2.914,2.374 4.337,3.623l0.539,0.464c21.572,18.269 44.402,32.832 67.823,43.263c25.751,11.504 53.168,17.34 81.491,17.34c28.323,0 55.74,-5.836 81.469,-17.323c23.448,-10.453 46.277,-25.011 67.845,-43.28l0.543,-0.464c1.42,-1.249 2.879,-2.432 4.333,-3.614c0.184,1.809 0.372,3.614 0.491,5.441l0.057,0.705c2.33,28.131 8.166,54.531 17.335,78.447c10.064,26.299 25.301,49.768 45.287,69.758c19.995,19.991 43.464,35.228 69.728,45.274c23.947,9.182 50.356,15.022 78.482,17.349l0.701,0.052c1.826,0.123 3.636,0.311 5.445,0.491c-1.187,1.459 -2.37,2.913 -3.619,4.337l-0.464,0.539c-18.264,21.572 -32.827,44.397 -43.262,67.823c-11.505,25.76 -17.336,53.176 -17.336,81.491c0,28.319 5.831,55.735 17.322,81.465Zm36.665,-442.483c34.746,34.75 49.571,82.429 44.042,128.184c-10.733,-2.265 -21.738,-3.829 -32.971,-4.587c-20.175,-1.695 -38.781,-5.774 -55.337,-12.122c-15.342,-5.866 -29.05,-14.773 -40.743,-26.466c-11.693,-11.693 -20.6,-25.401 -26.479,-40.769c-6.335,-16.525 -10.409,-35.136 -12.109,-55.315c-0.758,-11.229 -2.322,-22.229 -4.587,-32.967c45.76,-5.529 93.438,9.296 128.184,44.042Zm232.847,361.018c0,-83.476 -43.591,-157.682 -109.64,-200.226c16.85,-77.044 -4.797,-160.704 -64.046,-219.953c-59.244,-59.244 -142.904,-80.895 -219.949,-64.037c-42.544,-66.057 -116.754,-109.648 -200.234,-109.648c-83.48,0 -157.69,43.591 -200.23,109.648c-77.049,-16.854 -160.704,4.793 -219.953,64.037c-59.249,59.249 -80.896,142.909 -64.042,219.953c-66.052,42.544 -109.639,116.75 -109.639,200.226c0,83.48 43.582,157.69 109.639,200.23c-16.854,77.049 4.793,160.704 64.042,219.953c46.268,46.268 107.409,69.645 168.678,69.641c17.2,0 34.413,-1.858 51.301,-5.56c42.549,66.035 116.746,109.604 200.204,109.604c83.48,0 157.686,-43.586 200.234,-109.639c77.045,16.854 160.705,-4.797 219.949,-64.046c59.249,-59.249 80.896,-142.904 64.046,-219.953c66.049,-42.544 109.64,-116.75 109.64,-200.23Z" style="fill:url(#_Linear1);"/><path d="M1830.05,783.308c30.019,3.04 57.427,14.668 79.84,32.332c15.824,-24.35 26.671,-50.938 32.673,-78.368c-23.802,-15.329 -50.504,-26.566 -79.165,-32.608c-3.39,28.096 -14.461,55.451 -33.348,78.644Z" style="fill:#502c87;fill-rule:nonzero;"/><path d="M1830.05,783.308c30.019,3.04 57.427,14.668 79.84,32.332c15.824,-24.35 26.671,-50.938 32.673,-78.368c-23.802,-15.329 -50.504,-26.566 -79.165,-32.608c-3.39,28.096 -14.461,55.451 -33.348,78.644Z" style="fill:#502c87;fill-rule:nonzero;"/><path d="M1304.14,1309.21c-23.197,18.882 -50.552,29.957 -78.648,33.348c6.046,28.678 17.292,55.394 32.634,79.2c27.421,-5.997 54.005,-16.884 78.351,-32.704c-17.669,-22.418 -29.296,-49.825 -32.337,-79.844Z" style="fill:#992375;fill-rule:nonzero;"/><path d="M1304.14,1309.21c-23.197,18.882 -50.552,29.957 -78.648,33.348c6.046,28.678 17.292,55.394 32.634,79.2c27.421,-5.997 54.005,-16.884 78.351,-32.704c-17.669,-22.418 -29.296,-49.825 -32.337,-79.844Z" style="fill:#992375;fill-rule:nonzero;"/><path d="M1612.52,1309.21c-3.04,30.014 -14.668,57.422 -32.328,79.84c24.35,15.824 50.943,26.667 78.372,32.673c15.325,-23.802 26.563,-50.504 32.604,-79.165c-28.096,-3.391 -55.451,-14.466 -78.648,-33.348Z" style="fill:#6a2a7d;fill-rule:nonzero;"/><path d="M1612.52,1309.21c-3.04,30.014 -14.668,57.422 -32.328,79.84c24.35,15.824 50.943,26.667 78.372,32.673c15.325,-23.802 26.563,-50.504 32.604,-79.165c-28.096,-3.391 -55.451,-14.466 -78.648,-33.348Z" style="fill:#6a2a7d;fill-rule:nonzero;"/><path d="M1830.05,1091.69c18.887,23.193 29.958,50.553 33.348,78.648c28.661,-6.041 55.363,-17.283 79.165,-32.612c-6.002,-27.425 -16.849,-54.018 -32.673,-78.368c-22.413,17.664 -49.821,29.287 -79.84,32.332Z" style="fill:#502c87;fill-rule:nonzero;"/><path d="M1830.05,1091.69c18.887,23.193 29.958,50.553 33.348,78.648c28.661,-6.041 55.363,-17.283 79.165,-32.612c-6.002,-27.425 -16.849,-54.018 -32.673,-78.368c-22.413,17.664 -49.821,29.287 -79.84,32.332Z" style="fill:#502c87;fill-rule:nonzero;"/><path d="M1612.52,565.791c23.202,-18.887 50.552,-29.958 78.648,-33.353c-6.041,-28.661 -17.279,-55.359 -32.604,-79.156c-27.429,5.997 -54.022,16.845 -78.372,32.665c17.66,22.417 29.288,49.82 32.328,79.844Z" style="fill:#6a2a7d;fill-rule:nonzero;"/><path d="M1612.52,565.791c23.202,-18.887 50.552,-29.958 78.648,-33.353c-6.041,-28.661 -17.279,-55.359 -32.604,-79.156c-27.429,5.997 -54.022,16.845 -78.372,32.665c17.66,22.417 29.288,49.82 32.328,79.844Z" style="fill:#6a2a7d;fill-rule:nonzero;"/><path d="M1304.14,565.782c3.041,-30.019 14.668,-57.422 32.332,-79.835c-24.35,-15.82 -50.942,-26.668 -78.372,-32.665c-15.329,23.793 -26.566,50.491 -32.608,79.147c28.096,3.391 55.455,14.471 78.648,33.353Z" style="fill:#992375;fill-rule:nonzero;"/><path d="M1304.14,565.782c3.041,-30.019 14.668,-57.422 32.332,-79.835c-24.35,-15.82 -50.942,-26.668 -78.372,-32.665c-15.329,23.793 -26.566,50.491 -32.608,79.147c28.096,3.391 55.455,14.471 78.648,33.353Z" style="fill:#992375;fill-rule:nonzero;"/><path d="M1086.62,783.308c-18.882,-23.193 -29.957,-50.548 -33.348,-78.644c-28.661,6.042 -55.359,17.279 -79.161,32.608c6.002,27.43 16.845,54.018 32.669,78.368c22.414,-17.66 49.821,-29.292 79.84,-32.332Z" style="fill:#b71e74;fill-rule:nonzero;"/><path d="M1086.62,783.308c-18.882,-23.193 -29.957,-50.548 -33.348,-78.644c-28.661,6.042 -55.359,17.279 -79.161,32.608c6.002,27.43 16.845,54.018 32.669,78.368c22.414,-17.66 49.821,-29.292 79.84,-32.332Z" style="fill:#b71e74;fill-rule:nonzero;"/><path d="M1086.62,1091.69c-30.019,-3.045 -57.426,-14.668 -79.84,-32.332c-15.824,24.35 -26.667,50.943 -32.669,78.368c23.802,15.333 50.5,26.571 79.161,32.612c3.391,-28.095 14.466,-55.455 33.348,-78.648Z" style="fill:#b71e74;fill-rule:nonzero;"/><path d="M1086.62,1091.69c-30.019,-3.045 -57.426,-14.668 -79.84,-32.332c-15.824,24.35 -26.667,50.943 -32.669,78.368c23.802,15.333 50.5,26.571 79.161,32.612c3.391,-28.095 14.466,-55.455 33.348,-78.648Z" style="fill:#b71e74;fill-rule:nonzero;"/></g><defs><linearGradient id="_Linear1" x1="0" y1="0" x2="1" y2="0" gradientUnits="userSpaceOnUse" gradientTransform="matrix(1187.73,0,0,1187.73,864.467,937.498)"><stop offset="0" style="stop-color:#ed167f;stop-opacity:1"/><stop offset="0.2" style="stop-color:#e4068b;stop-opacity:1"/><stop offset="1" style="stop-color:#753c97;stop-opacity:1"/></linearGradient></defs></svg>