<?xml version="1.0" encoding="UTF-8" standalone="no"?><!DOCTYPE svg PUBLIC "-//W3C//DTD SVG 1.1//EN" "http://www.w3.org/Graphics/SVG/1.1/DTD/svg11.dtd"><svg width="100%" height="100%" viewBox="0 0 24 24" version="1.1" xmlns="http://www.w3.org/2000/svg" xmlns:xlink="http://www.w3.org/1999/xlink" xml:space="preserve" xmlns:serif="http://www.serif.com/" style="fill-rule:evenodd;clip-rule:evenodd;stroke-linejoin:round;stroke-miterlimit:2;"><rect id="Artboard1" x="0" y="0" width="24" height="24" style="fill:none;"/><g id="Artboard11" serif:id="Artboard1"><path d="M18.788,18.788c0.469,-0.468 0.469,-1.229 0,-1.697l-11.879,-11.879c-0.468,-0.469 -1.229,-0.469 -1.697,0c-0.469,0.468 -0.469,1.229 0,1.697l11.879,11.879c0.468,0.469 1.229,0.469 1.697,0Z" style="fill:#fbfbfb;"/><path d="M18.788,5.212c-0.468,-0.469 -1.229,-0.469 -1.697,0l-11.879,11.879c-0.469,0.468 -0.469,1.229 0,1.697c0.468,0.469 1.229,0.469 1.697,0l11.879,-11.879c0.469,-0.468 0.469,-1.229 0,-1.697Z" style="fill:#fbfbfb;"/></g></svg>