<?xml version="1.0" encoding="UTF-8" standalone="no"?><!DOCTYPE svg PUBLIC "-//W3C//DTD SVG 1.1//EN" "http://www.w3.org/Graphics/SVG/1.1/DTD/svg11.dtd"><svg width="100%" height="100%" viewBox="0 0 24 24" version="1.1" xmlns="http://www.w3.org/2000/svg" xmlns:xlink="http://www.w3.org/1999/xlink" xml:space="preserve" xmlns:serif="http://www.serif.com/" style="fill-rule:evenodd;clip-rule:evenodd;stroke-linejoin:round;stroke-miterlimit:2;"><rect id="Artboard1" x="0" y="0" width="24" height="24" style="fill:none;"/><g id="Artboard11" serif:id="Artboard1"><g><path d="M21.559,12c0,-0.662 -0.537,-1.2 -1.2,-1.2l-16.8,0c-0.662,0 -1.2,0.538 -1.2,1.2c0,0.662 0.538,1.2 1.2,1.2l16.8,0c0.663,0 1.2,-0.538 1.2,-1.2Z" style="fill:#14110f;"/><path d="M21.641,4.999c0,-0.663 -0.538,-1.2 -1.2,-1.2l-16.8,0c-0.663,0 -1.2,0.537 -1.2,1.2c0,0.662 0.537,1.2 1.2,1.2l16.8,0c0.662,0 1.2,-0.538 1.2,-1.2Z" style="fill:#14110f;"/><path d="M21.641,19.001c0,-0.662 -0.538,-1.2 -1.2,-1.2l-16.8,0c-0.663,0 -1.2,0.538 -1.2,1.2c0,0.663 0.537,1.2 1.2,1.2l16.8,0c0.662,0 1.2,-0.537 1.2,-1.2Z" style="fill:#14110f;"/></g></g></svg>