<svg width="751" height="400" viewBox="0 0 751 400" fill="none" xmlns="http://www.w3.org/2000/svg">
<rect width="750" height="400" fill="white"/>
<path d="M279.102 222.599L468.766 134.589L497.709 85L279.102 222.599Z" fill="#280749"/>
<path d="M285.04 223.966L420.876 188.767L458.833 145.267L285.04 223.966Z" fill="#7C39BF"/>
<path d="M412.434 97.0658L271.991 223.044L388.434 149.593L412.434 97.0658Z" fill="#7C39BF"/>
<path d="M333.727 161.613L302.9 169.181L271.546 219.038L333.727 161.613Z" fill="white"/>
<path d="M282.213 207.463L304.458 185.206L303.547 173.632L282.213 207.463Z" fill="#280749"/>
<path d="M254.886 292.887C254.886 294.303 255.24 295.611 255.947 296.813C256.675 298.015 257.639 298.97 258.839 299.679C260.06 300.387 261.378 300.741 262.792 300.741C264.249 300.741 265.566 300.451 266.745 299.871C267.923 299.292 268.844 298.487 269.509 297.457C270.194 296.427 270.548 295.268 270.569 293.981H271.726C271.726 295.461 271.33 296.813 270.537 298.036C269.766 299.238 268.694 300.193 267.323 300.901C265.973 301.588 264.463 301.932 262.792 301.932C261.164 301.932 259.653 301.523 258.26 300.708C256.868 299.893 255.764 298.799 254.95 297.425C254.136 296.03 253.729 294.517 253.729 292.887V287.607C253.729 285.976 254.125 284.474 254.918 283.101C255.732 281.706 256.825 280.6 258.196 279.785C259.589 278.97 261.099 278.562 262.728 278.562C264.377 278.562 265.877 278.916 267.227 279.624C268.598 280.311 269.68 281.266 270.473 282.489C271.265 283.691 271.662 285.032 271.662 286.512H270.505C270.483 285.225 270.13 284.067 269.444 283.036C268.759 282.007 267.827 281.201 266.648 280.622C265.491 280.043 264.184 279.753 262.728 279.753C261.314 279.753 260.007 280.107 258.807 280.816C257.607 281.524 256.654 282.479 255.947 283.68C255.24 284.882 254.886 286.191 254.886 287.607V292.887ZM280.539 279.045H281.728V292.887C281.728 294.303 282.082 295.611 282.789 296.813C283.496 298.015 284.449 298.97 285.649 299.679C286.849 300.387 288.156 300.741 289.57 300.741C290.984 300.741 292.291 300.387 293.491 299.679C294.69 298.97 295.644 298.015 296.351 296.813C297.058 295.611 297.411 294.303 297.411 292.887V279.045H298.601V292.887C298.601 294.517 298.193 296.03 297.379 297.425C296.565 298.799 295.462 299.893 294.069 300.708C292.698 301.523 291.198 301.932 289.57 301.932C287.942 301.932 286.431 301.523 285.038 300.708C283.667 299.893 282.575 298.799 281.76 297.425C280.946 296.03 280.539 294.517 280.539 292.887V279.045Z" fill="#7C39BF"/>
<path d="M255.947 296.813L254.457 297.692L254.463 297.702L254.469 297.712L255.947 296.813ZM258.839 299.679L257.961 301.171L257.967 301.173L257.973 301.177L258.839 299.679ZM266.745 299.871L265.983 298.317L266.745 299.871ZM269.509 297.457L268.07 296.497L268.063 296.507L268.056 296.517L269.509 297.457ZM270.569 293.981V292.248H268.869L268.84 293.952L270.569 293.981ZM271.726 293.981H273.455V292.248H271.726V293.981ZM270.537 298.037L269.087 297.093L269.085 297.096L269.082 297.1L270.537 298.037ZM267.323 300.901L268.106 302.446L268.111 302.443L268.116 302.441L267.323 300.901ZM254.95 297.425L253.458 298.299L253.461 298.304L253.464 298.309L254.95 297.425ZM254.918 283.101L253.425 282.227L253.423 282.23L253.421 282.234L254.918 283.101ZM258.196 279.785L257.324 278.291L257.318 278.293L257.313 278.296L258.196 279.785ZM267.227 279.624L266.424 281.159L266.439 281.166L266.454 281.174L267.227 279.624ZM270.473 282.489L269.022 283.433L269.026 283.438L269.03 283.444L270.473 282.489ZM271.662 286.512V288.245H273.391V286.512H271.662ZM270.505 286.512L268.776 286.542L268.804 288.245H270.505V286.512ZM266.648 280.622L265.875 282.171L265.881 282.174L265.886 282.177L266.648 280.622ZM258.807 280.816L259.685 282.308L258.807 280.816ZM255.947 283.68L254.457 282.801L255.947 283.68ZM253.157 292.887C253.157 294.607 253.591 296.22 254.457 297.692L257.436 295.934C256.889 295.003 256.615 293.999 256.615 292.887H253.157ZM254.469 297.712C255.344 299.157 256.513 300.316 257.961 301.171L259.717 298.186C258.765 297.625 258.006 296.874 257.425 295.914L254.469 297.712ZM257.973 301.177C259.458 302.038 261.074 302.472 262.792 302.472V299.009C261.681 299.009 260.663 298.735 259.705 298.179L257.973 301.177ZM262.792 302.472C264.484 302.472 266.066 302.134 267.507 301.426L265.983 298.317C265.067 298.767 264.014 299.009 262.792 299.009V302.472ZM267.507 301.426C268.946 300.718 270.114 299.71 270.961 298.396L268.056 296.517C267.574 297.265 266.901 297.865 265.983 298.317L267.507 301.426ZM270.947 298.418C271.824 297.1 272.271 295.615 272.298 294.01L268.84 293.952C268.824 294.921 268.564 295.754 268.07 296.497L270.947 298.418ZM270.569 295.713H271.726V292.248H270.569V295.713ZM269.997 293.981C269.997 295.133 269.695 296.155 269.087 297.093L271.987 298.98C272.965 297.471 273.455 295.791 273.455 293.981H269.997ZM269.082 297.1C268.489 298.026 267.655 298.782 266.531 299.362L268.116 302.441C269.734 301.605 271.043 300.452 271.991 298.973L269.082 297.1ZM266.54 299.357C265.457 299.908 264.22 300.2 262.792 300.2V303.663C264.706 303.663 266.49 303.268 268.106 302.446L266.54 299.357ZM262.792 300.2C261.467 300.2 260.258 299.872 259.133 299.214L257.388 302.203C259.048 303.176 260.86 303.663 262.792 303.663V300.2ZM259.133 299.214C257.991 298.544 257.1 297.659 256.437 296.541L253.464 298.309C254.429 299.938 255.745 301.241 257.388 302.203L259.133 299.214ZM256.443 296.551C255.785 295.424 255.458 294.213 255.458 292.887H252C252 294.822 252.487 296.636 253.458 298.299L256.443 296.551ZM255.458 292.887V287.607H252V292.887H255.458ZM255.458 287.607C255.458 286.272 255.779 285.07 256.415 283.967L253.421 282.234C252.472 283.879 252 285.681 252 287.607H255.458ZM256.411 283.975C257.079 282.831 257.963 281.938 259.079 281.274L257.313 278.296C255.687 279.263 254.386 280.582 253.425 282.227L256.411 283.975ZM259.069 281.281C260.194 280.621 261.403 280.294 262.728 280.294V276.83C260.796 276.83 258.984 277.318 257.324 278.291L259.069 281.281ZM262.728 280.294C264.122 280.294 265.342 280.591 266.424 281.159L268.029 278.09C266.412 277.241 264.633 276.83 262.728 276.83V280.294ZM266.454 281.174C267.564 281.729 268.406 282.482 269.022 283.433L271.923 281.546C270.954 280.051 269.632 278.892 268 278.075L266.454 281.174ZM269.03 283.444C269.63 284.354 269.933 285.362 269.933 286.512H273.391C273.391 284.703 272.9 283.027 271.915 281.535L269.03 283.444ZM271.662 284.781H270.505V288.245H271.662V284.781ZM272.234 286.484C272.207 284.878 271.76 283.393 270.883 282.075L268.006 283.997C268.5 284.739 268.76 285.572 268.776 286.542L272.234 286.484ZM270.883 282.075C270.018 280.775 268.845 279.773 267.41 279.067L265.886 282.177C266.808 282.63 267.5 283.237 268.006 283.997L270.883 282.075ZM267.422 279.073C265.996 278.359 264.419 278.021 262.728 278.021V281.485C263.95 281.485 264.987 281.726 265.875 282.171L267.422 279.073ZM262.728 278.021C261.01 278.021 259.399 278.456 257.929 279.323L259.685 282.308C260.614 281.759 261.617 281.485 262.728 281.485V278.021ZM257.929 279.323C256.477 280.181 255.313 281.346 254.457 282.801L257.436 284.559C257.994 283.611 258.737 282.866 259.685 282.308L257.929 279.323ZM254.457 282.801C253.591 284.273 253.157 285.887 253.157 287.607H256.615C256.615 286.495 256.889 285.491 257.436 284.559L254.457 282.801ZM253.157 287.607V292.887H256.615V287.607H253.157ZM280.539 279.045V277.313H278.81V279.045H280.539ZM281.728 279.045H283.457V277.313H281.728V279.045ZM282.789 296.813L284.279 295.934L282.789 296.813ZM285.649 299.679L284.771 301.171L285.649 299.679ZM293.491 299.679L292.613 298.186L293.491 299.679ZM296.351 296.813L294.861 295.934L296.351 296.813ZM297.411 279.045V277.313H295.682V279.045H297.411ZM298.601 279.045H300.33V277.313H298.601V279.045ZM297.379 297.425L298.866 298.309L298.869 298.304L298.872 298.299L297.379 297.425ZM294.069 300.708L293.196 299.214L293.191 299.217L293.186 299.22L294.069 300.708ZM285.038 300.708L284.156 302.197L284.161 302.2L284.166 302.203L285.038 300.708ZM281.76 297.425L280.268 298.299L280.271 298.304L280.274 298.309L281.76 297.425ZM280.539 280.776H281.728V277.313H280.539V280.776ZM279.999 279.045V292.887H283.457V279.045H279.999ZM279.999 292.887C279.999 294.607 280.433 296.22 281.299 297.692L284.279 295.934C283.731 295.003 283.457 293.999 283.457 292.887H279.999ZM281.299 297.692C282.155 299.148 283.319 300.313 284.771 301.171L286.527 298.186C285.58 297.627 284.837 296.883 284.279 295.934L281.299 297.692ZM284.771 301.171C286.241 302.038 287.852 302.472 289.57 302.472V299.009C288.46 299.009 287.456 298.735 286.527 298.186L284.771 301.171ZM289.57 302.472C291.288 302.472 292.898 302.038 294.368 301.171L292.613 298.186C291.683 298.735 290.68 299.009 289.57 299.009V302.472ZM294.368 301.171C295.821 300.313 296.985 299.148 297.841 297.692L294.861 295.934C294.303 296.883 293.56 297.627 292.613 298.186L294.368 301.171ZM297.841 297.692C298.707 296.22 299.14 294.607 299.14 292.887H295.682C295.682 293.999 295.409 295.003 294.861 295.934L297.841 297.692ZM299.14 292.887V279.045H295.682V292.887H299.14ZM297.411 280.776H298.601V277.313H297.411V280.776ZM296.871 279.045V292.887H300.33V279.045H296.871ZM296.871 292.887C296.871 294.213 296.544 295.424 295.886 296.551L298.872 298.299C299.842 296.636 300.33 294.822 300.33 292.887H296.871ZM295.892 296.541C295.23 297.659 294.339 298.544 293.196 299.214L294.942 302.203C296.584 301.241 297.9 299.938 298.866 298.309L295.892 296.541ZM293.186 299.22C292.088 299.872 290.894 300.2 289.57 300.2V303.663C291.502 303.663 293.308 303.176 294.952 302.197L293.186 299.22ZM289.57 300.2C288.245 300.2 287.036 299.872 285.911 299.214L284.166 302.203C285.826 303.176 287.638 303.663 289.57 303.663V300.2ZM285.921 299.22C284.799 298.552 283.914 297.665 283.247 296.541L280.274 298.309C281.235 299.931 282.536 301.234 284.156 302.197L285.921 299.22ZM283.253 296.551C282.595 295.424 282.268 294.213 282.268 292.887H278.81C278.81 294.822 279.297 296.636 280.268 298.299L283.253 296.551ZM282.268 292.887V279.045H278.81V292.887H282.268Z" fill="#7C39BF"/>
<path d="M306.392 303.826V260.985H312.822V279.184H334.238V260.985H340.727C340.727 261.497 340.727 262.462 340.727 263.88C340.727 265.259 340.727 266.914 340.727 268.844C340.727 270.774 340.727 272.921 340.727 275.284C340.727 277.609 340.708 279.992 340.668 282.434C340.668 284.838 340.668 287.221 340.668 289.585C340.668 291.909 340.668 294.036 340.668 295.967C340.668 297.897 340.668 299.571 340.668 300.989C340.668 302.368 340.668 303.313 340.668 303.826H334.238V285.33H312.822V303.826H306.392ZM346.641 291.712C346.641 289.9 346.974 288.206 347.643 286.63C348.351 285.015 349.295 283.616 350.475 282.434C351.656 281.213 353.012 280.248 354.546 279.539C356.119 278.83 357.791 278.475 359.561 278.475C360.74 278.475 361.822 278.633 362.806 278.948C363.788 279.224 364.634 279.579 365.342 280.012C366.049 280.445 366.62 280.898 367.053 281.371C367.486 281.843 367.78 282.257 367.937 282.611L368.174 279.125H373.011V303.826H367.937V300.694C367.741 301.008 367.427 301.383 366.994 301.817C366.561 302.249 365.991 302.663 365.283 303.058C364.614 303.412 363.808 303.727 362.865 304.003C361.92 304.278 360.839 304.417 359.62 304.417C357.732 304.417 355.981 304.081 354.369 303.412C352.795 302.703 351.439 301.777 350.298 300.635C349.158 299.453 348.253 298.094 347.584 296.558C346.955 295.021 346.641 293.406 346.641 291.712ZM351.714 291.417C351.714 292.559 351.911 293.622 352.305 294.608C352.736 295.592 353.307 296.44 354.015 297.149C354.723 297.858 355.568 298.429 356.552 298.862C357.534 299.256 358.616 299.453 359.796 299.453C360.977 299.453 362.058 299.256 363.041 298.862C364.063 298.429 364.929 297.858 365.637 297.149C366.384 296.399 366.955 295.553 367.347 294.608C367.741 293.622 367.937 292.559 367.937 291.417C367.937 290.274 367.741 289.231 367.347 288.285C366.955 287.3 366.384 286.453 365.637 285.743C364.929 285.034 364.063 284.483 363.041 284.089C362.058 283.656 360.977 283.439 359.796 283.439C358.616 283.439 357.534 283.656 356.552 284.089C355.568 284.483 354.723 285.034 354.015 285.743C353.307 286.453 352.736 287.3 352.305 288.285C351.911 289.231 351.714 290.274 351.714 291.417ZM396.614 297.739C397.165 298.409 397.677 299.058 398.149 299.689C398.659 300.28 399.171 300.91 399.682 301.58C398.581 302.447 397.342 303.136 395.965 303.648C394.589 304.16 393.095 304.417 391.482 304.417C389.673 304.417 387.962 304.081 386.35 303.412C384.776 302.703 383.4 301.758 382.219 300.576C381.039 299.394 380.096 298.015 379.388 296.44C378.719 294.863 378.385 293.19 378.385 291.417C378.385 289.644 378.719 287.97 379.388 286.393C380.096 284.818 381.039 283.459 382.219 282.316C383.4 281.134 384.776 280.209 386.35 279.539C387.962 278.83 389.673 278.475 391.482 278.475C393.134 278.475 394.648 278.732 396.024 279.243C397.44 279.756 398.718 280.445 399.859 281.311L396.614 285.152C395.946 284.601 395.179 284.188 394.314 283.911C393.448 283.597 392.505 283.439 391.482 283.439C390.303 283.439 389.221 283.656 388.237 284.089C387.254 284.483 386.389 285.034 385.641 285.743C384.933 286.453 384.383 287.3 383.99 288.285C383.596 289.231 383.4 290.274 383.4 291.417C383.4 292.559 383.596 293.622 383.99 294.608C384.383 295.553 384.933 296.399 385.641 297.149C386.389 297.858 387.254 298.429 388.237 298.862C389.221 299.256 390.303 299.453 391.482 299.453C392.505 299.453 393.448 299.315 394.314 299.039C395.179 298.724 395.946 298.29 396.614 297.739ZM422.16 278.475L425.17 281.489C423.674 282.868 422.239 284.207 420.863 285.507C419.525 286.807 418.11 288.167 416.615 289.585C418.384 291.949 420.115 294.331 421.807 296.735C423.498 299.099 425.209 301.462 426.939 303.826H421.158C419.821 301.974 418.463 300.162 417.087 298.389C415.749 296.577 414.412 294.745 413.075 292.894L409.653 296.026V303.826H404.639V257.912H409.653V290.117C411.856 288.108 413.961 286.177 415.966 284.325C417.972 282.434 420.037 280.484 422.16 278.475ZM430.088 269.671C430.088 268.725 430.423 267.938 431.092 267.307C431.8 266.677 432.547 266.362 433.333 266.362C434.12 266.362 434.847 266.677 435.516 267.307C436.184 267.938 436.519 268.725 436.519 269.671C436.519 270.616 436.184 271.404 435.516 272.034C434.847 272.625 434.12 272.921 433.333 272.921C432.547 272.921 431.8 272.625 431.092 272.034C430.423 271.404 430.088 270.616 430.088 269.671ZM435.752 303.826H430.737V279.125H435.752V303.826ZM442.836 279.125H447.261C447.339 280.347 447.398 281.47 447.437 282.493C447.516 283.479 447.596 284.463 447.674 285.448C448.578 283.321 449.857 281.627 451.508 280.366C453.2 279.106 455.264 278.475 457.703 278.475C460.181 278.475 462.167 279.165 463.661 280.543C465.156 281.922 465.942 283.695 466.022 285.861V303.826H460.948V288.167C460.869 286.906 460.436 285.842 459.65 284.975C458.863 284.07 457.624 283.577 455.933 283.498C454.753 283.498 453.672 283.715 452.688 284.148C451.705 284.542 450.859 285.093 450.151 285.802C449.443 286.511 448.873 287.359 448.441 288.344C448.047 289.329 447.851 290.412 447.851 291.594V303.826H442.836V279.125ZM471.201 291.535C471.201 289.683 471.534 287.97 472.203 286.393C472.872 284.779 473.777 283.4 474.918 282.257C476.057 281.075 477.395 280.15 478.929 279.48C480.463 278.811 482.094 278.475 483.825 278.475C485.163 278.475 486.343 278.652 487.365 279.007C488.427 279.362 489.312 279.775 490.02 280.248C490.728 280.721 491.278 281.193 491.672 281.666C492.105 282.1 492.38 282.415 492.497 282.611C492.497 282.061 492.537 281.489 492.615 280.898C492.695 280.268 492.734 279.677 492.734 279.125H497.571V302.703C497.571 306.799 496.372 309.99 493.973 312.276C491.574 314.56 488.329 315.703 484.239 315.703C482.823 315.703 481.545 315.545 480.404 315.23C479.302 314.954 478.28 314.58 477.336 314.107C476.432 313.635 475.586 313.083 474.799 312.453C474.052 311.822 473.305 311.172 472.557 310.503L475.802 307.076C477.022 308.217 478.261 309.124 479.519 309.794C480.816 310.463 482.351 310.798 484.121 310.798C486.756 310.798 488.801 310.167 490.256 308.907C491.711 307.647 492.458 305.894 492.497 303.648V301.935C492.497 301.619 492.537 301.285 492.615 300.93C492.695 300.536 492.734 300.24 492.734 300.044C492.38 300.517 491.927 301.028 491.377 301.58C490.866 302.092 490.256 302.565 489.548 302.998C488.84 303.392 488.014 303.727 487.07 304.003C486.127 304.278 485.064 304.417 483.884 304.417C482.036 304.417 480.345 304.081 478.81 303.412C477.277 302.742 475.94 301.836 474.799 300.694C473.659 299.512 472.773 298.153 472.144 296.617C471.515 295.04 471.201 293.347 471.201 291.535ZM476.274 291.417C476.274 292.559 476.471 293.622 476.863 294.608C477.296 295.592 477.867 296.44 478.575 297.149C479.283 297.858 480.128 298.429 481.112 298.862C482.094 299.256 483.176 299.453 484.356 299.453C485.537 299.453 486.618 299.256 487.601 298.862C488.623 298.429 489.489 297.858 490.197 297.149C490.944 296.399 491.515 295.553 491.907 294.608C492.301 293.622 492.497 292.559 492.497 291.417C492.497 290.274 492.301 289.231 491.907 288.285C491.515 287.3 490.944 286.453 490.197 285.743C489.489 285.034 488.623 284.483 487.601 284.089C486.618 283.656 485.537 283.439 484.356 283.439C483.176 283.439 482.094 283.656 481.112 284.089C480.128 284.483 479.283 285.034 478.575 285.743C477.867 286.453 477.296 287.3 476.863 288.285C476.471 289.231 476.274 290.274 476.274 291.417Z" fill="#280749"/>
<rect x="-0.5" y="-0.5" width="751" height="401" stroke="#14110F" stroke-opacity="0.1"/>
</svg>
