<?xml version="1.0" encoding="UTF-8" standalone="no"?><!DOCTYPE svg PUBLIC "-//W3C//DTD SVG 1.1//EN" "http://www.w3.org/Graphics/SVG/1.1/DTD/svg11.dtd"><svg width="100%" height="100%" viewBox="0 0 700 450" version="1.1" xmlns="http://www.w3.org/2000/svg" xmlns:xlink="http://www.w3.org/1999/xlink" xml:space="preserve" xmlns:serif="http://www.serif.com/" style="fill-rule:evenodd;clip-rule:evenodd;stroke-linejoin:round;stroke-miterlimit:2;"><g><rect x="-6.044" y="-13.785" width="712.088" height="477.569" style="fill:#333;"/><path d="M494.252,204.226c-5.25,0 -10.189,2.076 -13.907,5.846c-3.736,3.787 -5.792,8.828 -5.792,14.193c0,5.364 2.056,10.405 5.792,14.192c3.718,3.77 8.657,5.847 13.907,5.847c5.249,0 10.189,-2.077 13.907,-5.847c3.735,-3.787 5.792,-8.828 5.792,-14.192c0,-5.365 -2.057,-10.406 -5.792,-14.193c-3.718,-3.77 -8.658,-5.846 -13.907,-5.846Zm0,49.34c-3.916,0 -7.716,-0.779 -11.296,-2.314c-3.451,-1.48 -6.548,-3.597 -9.206,-6.292c-2.653,-2.689 -4.736,-5.822 -6.191,-9.31c-1.506,-3.609 -2.269,-7.44 -2.269,-11.385c0,-3.946 0.763,-7.777 2.269,-11.386c1.455,-3.488 3.538,-6.62 6.191,-9.311c2.658,-2.694 5.755,-4.811 9.206,-6.291c3.58,-1.535 7.38,-2.313 11.296,-2.313c3.915,0 7.716,0.778 11.296,2.313c3.451,1.48 6.548,3.597 9.205,6.291c2.654,2.691 4.737,5.823 6.191,9.311c1.506,3.609 2.27,7.44 2.27,11.386c0,3.945 -0.764,7.776 -2.27,11.385c-1.454,3.488 -3.537,6.621 -6.191,9.31c-2.657,2.695 -5.754,4.812 -9.205,6.292c-3.58,1.535 -7.381,2.314 -11.296,2.314Z" style="fill:#fff;fill-rule:nonzero;"/><path d="M575.136,252.434l-0.001,-30.973c0,-4.601 -1.8,-8.926 -5.067,-12.181c-3.272,-3.259 -7.626,-5.054 -12.256,-5.054c-4.63,0 -8.983,1.795 -12.256,5.054c-3.267,3.255 -5.067,7.58 -5.067,12.18l0.001,30.974l-9.263,0l0,-30.973c0,-3.578 0.704,-7.05 2.094,-10.322c1.34,-3.156 3.258,-5.989 5.699,-8.421c2.441,-2.43 5.283,-4.339 8.448,-5.672c3.279,-1.382 6.759,-2.082 10.344,-2.082c3.585,0 7.065,0.7 10.344,2.082c3.165,1.333 6.008,3.242 8.448,5.672c2.442,2.432 4.359,5.265 5.699,8.421c1.39,3.272 2.094,6.744 2.094,10.321l0.001,30.974l-9.262,0Z" style="fill:#fff;fill-rule:nonzero;"/><rect x="314.591" y="196.096" width="9.261" height="56.338" style="fill:#fff;fill-rule:nonzero;"/><path d="M324.767,178.47c0,3.062 -2.483,5.545 -5.545,5.545c-3.063,0 -5.545,-2.483 -5.545,-5.545c0,-3.063 2.482,-5.545 5.545,-5.545c3.062,0 5.545,2.482 5.545,5.545Z" style="fill:#fff;fill-rule:nonzero;"/><path d="M278.505,252.434l-9.262,0l0,-30.489c0,-3.488 0.684,-6.874 2.033,-10.064c1.302,-3.078 3.165,-5.842 5.538,-8.215c2.372,-2.372 5.136,-4.235 8.215,-5.537c3.19,-1.349 6.576,-2.034 10.063,-2.034l10.494,0l0,9.262l-10.494,0c-9.146,0 -16.587,7.441 -16.587,16.588l0,30.489Z" style="fill:#fff;fill-rule:nonzero;"/><path d="M389.469,213.644c-1.447,-3.422 -3.519,-6.495 -6.156,-9.132c-2.638,-2.638 -5.71,-4.709 -9.132,-6.157c-3.546,-1.499 -7.309,-2.26 -11.187,-2.26l-18.106,0c-0.754,0 -1.367,-0.613 -1.367,-1.362l0.017,-17.609l-9.262,-0.008l-0.017,17.613c0,5.861 4.768,10.628 10.629,10.628l18.106,0c5.202,0 10.092,2.026 13.77,5.704c3.678,3.678 5.703,8.568 5.703,13.77c0,5.201 -2.025,10.091 -5.703,13.769c-3.678,3.677 -8.568,5.703 -13.77,5.703c-5.201,0 -10.091,-2.026 -13.769,-5.703c-3.589,-3.589 -5.604,-8.332 -5.7,-13.391l0,-14.58c-5.115,0 -9.262,4.147 -9.262,9.262l0,0.309l-0.004,0l0,4.631c0,3.876 0.761,7.64 2.26,11.185c1.448,3.423 3.519,6.496 6.156,9.133c2.638,2.638 5.71,4.708 9.133,6.156c3.545,1.5 7.309,2.261 11.186,2.261c3.878,0 7.641,-0.761 11.187,-2.261c3.422,-1.448 6.494,-3.518 9.132,-6.156c2.637,-2.637 4.709,-5.71 6.156,-9.133c1.499,-3.545 2.26,-7.309 2.26,-11.185c0,-3.878 -0.761,-7.642 -2.26,-11.187Z" style="fill:#fff;fill-rule:nonzero;"/><path d="M454.882,213.644c-1.447,-3.422 -3.518,-6.495 -6.156,-9.132c-2.637,-2.638 -5.71,-4.709 -9.132,-6.157c-3.546,-1.499 -7.31,-2.26 -11.186,-2.26l-18.107,0c-0.753,0 -1.366,-0.613 -1.366,-1.362l0.016,-17.609l-9.262,-0.008l-0.016,17.613c0,5.861 4.768,10.628 10.628,10.628l18.107,0c5.201,0 10.091,2.026 13.769,5.704c3.678,3.678 5.704,8.568 5.704,13.77c0,5.201 -2.026,10.091 -5.704,13.769c-3.678,3.677 -8.568,5.703 -13.769,5.703c-5.202,0 -10.092,-2.026 -13.77,-5.703c-3.588,-3.589 -5.604,-8.332 -5.7,-13.391l0,-14.58c-5.115,0 -9.262,4.147 -9.262,9.262l0,0.309l-0.003,0l0,4.631c0,3.876 0.761,7.64 2.26,11.185c1.447,3.423 3.519,6.496 6.156,9.133c2.638,2.638 5.71,4.708 9.132,6.156c3.546,1.5 7.309,2.261 11.187,2.261c3.876,0 7.64,-0.761 11.186,-2.261c3.422,-1.448 6.495,-3.518 9.132,-6.156c2.638,-2.637 4.709,-5.71 6.156,-9.133c1.5,-3.545 2.26,-7.309 2.26,-11.185c0,-3.878 -0.76,-7.642 -2.26,-11.187Z" style="fill:#fff;fill-rule:nonzero;"/><path d="M219.904,238.49c-0.67,-1.03 -1.417,-2.025 -2.246,-2.974c-1.444,-1.71 -2.579,-3.482 -3.377,-5.271c-0.739,-1.655 -1.114,-3.42 -1.114,-5.245c0,-1.825 0.375,-3.59 1.116,-5.248c0.796,-1.786 1.931,-3.558 3.375,-5.268c0.829,-0.948 1.576,-1.944 2.246,-2.974c4.006,3.157 6.571,8.051 6.571,13.49c0,5.439 -2.565,10.333 -6.571,13.49Zm-10.022,26.474c-3.847,3.847 -9.125,5.488 -14.19,4.876c0.251,-1.188 0.424,-2.406 0.508,-3.649c0.188,-2.234 0.639,-4.295 1.342,-6.127c0.649,-1.698 1.635,-3.216 2.929,-4.51c1.295,-1.294 2.813,-2.28 4.514,-2.931c1.829,-0.702 3.889,-1.153 6.123,-1.34c1.243,-0.084 2.461,-0.258 3.649,-0.508c0.612,5.065 -1.029,10.342 -4.875,14.189Zm-39.965,16.594c-5.439,0 -10.332,-2.565 -13.489,-6.571c1.03,-0.669 2.024,-1.417 2.973,-2.246c1.711,-1.444 3.482,-2.58 5.272,-3.377c1.655,-0.74 3.42,-1.114 5.244,-1.114c1.826,0 3.59,0.374 5.249,1.116c1.785,0.795 3.557,1.931 5.267,3.375c0.949,0.83 1.944,1.576 2.974,2.245c-3.157,4.007 -8.05,6.572 -13.49,6.572Zm-39.964,-16.594c-3.847,-3.847 -5.488,-9.124 -4.876,-14.189c1.189,0.25 2.406,0.424 3.649,0.507c2.234,0.188 4.294,0.639 6.127,1.342c1.698,0.65 3.216,1.636 4.51,2.93c1.294,1.294 2.28,2.812 2.932,4.514c0.7,1.828 1.151,3.889 1.34,6.123c0.084,1.243 0.257,2.46 0.507,3.649c-5.065,0.612 -10.343,-1.029 -14.189,-4.876Zm-16.594,-39.964c0,-5.439 2.565,-10.333 6.572,-13.49c0.669,1.03 1.416,2.026 2.245,2.974c1.444,1.71 2.58,3.482 3.377,5.271c0.74,1.655 1.114,3.42 1.114,5.245c0,1.825 -0.374,3.59 -1.115,5.248c-0.796,1.786 -1.932,3.558 -3.376,5.268c-0.829,0.948 -1.576,1.944 -2.245,2.974c-4.007,-3.157 -6.572,-8.051 -6.572,-13.49Zm16.594,-39.964c3.325,-3.325 7.718,-5.004 12.12,-5.004c0.691,0 1.382,0.044 2.069,0.127c-0.25,1.189 -0.423,2.407 -0.507,3.651c-0.189,2.234 -0.64,4.294 -1.342,6.126c-0.65,1.698 -1.636,3.216 -2.93,4.51c-1.294,1.294 -2.811,2.28 -4.514,2.931c-1.829,0.702 -3.888,1.153 -6.122,1.341c-1.243,0.084 -2.461,0.257 -3.65,0.507c-0.612,-5.065 1.029,-10.342 4.876,-14.189Zm39.964,-16.594c5.44,0 10.333,2.565 13.49,6.572c-1.03,0.669 -2.025,1.416 -2.974,2.246c-1.71,1.443 -3.482,2.579 -5.271,3.377c-1.655,0.739 -3.419,1.113 -5.245,1.113c-1.824,0 -3.589,-0.374 -5.248,-1.115c-1.786,-0.796 -3.557,-1.932 -5.267,-3.375c-0.949,-0.83 -1.944,-1.577 -2.974,-2.246c3.157,-4.007 8.05,-6.572 13.489,-6.572Zm35.906,65.576c1.157,2.596 2.769,5.123 4.79,7.511l0.052,0.059c0.138,0.158 0.269,0.319 0.4,0.481c-0.2,0.02 -0.4,0.041 -0.602,0.054l-0.078,0.006c-3.114,0.258 -6.037,0.904 -8.684,1.919c-2.911,1.113 -5.509,2.8 -7.722,5.013c-2.213,2.213 -3.9,4.811 -5.012,7.719c-1.017,2.65 -1.663,5.574 -1.921,8.687l-0.006,0.079c-0.013,0.202 -0.034,0.402 -0.054,0.602c-0.161,-0.131 -0.323,-0.262 -0.48,-0.401l-0.06,-0.051c-2.388,-2.022 -4.915,-3.634 -7.507,-4.789c-2.852,-1.274 -5.887,-1.92 -9.022,-1.92c-3.135,0 -6.17,0.646 -9.017,1.919c-2.596,1.156 -5.124,2.768 -7.512,4.79l-0.059,0.051c-0.157,0.139 -0.319,0.27 -0.48,0.401c-0.021,-0.2 -0.041,-0.4 -0.054,-0.602l-0.007,-0.079c-0.258,-3.113 -0.904,-6.037 -1.919,-8.684c-1.114,-2.911 -2.801,-5.509 -5.013,-7.722l-0.001,0c-2.212,-2.213 -4.811,-3.9 -7.718,-5.012c-2.65,-1.016 -5.573,-1.662 -8.687,-1.92l-0.078,-0.006c-0.203,-0.013 -0.403,-0.034 -0.603,-0.054c0.131,-0.162 0.262,-0.323 0.4,-0.481l0.052,-0.059c2.022,-2.388 3.634,-4.915 4.789,-7.508c1.273,-2.851 1.919,-5.886 1.919,-9.021c0,-3.135 -0.646,-6.17 -1.918,-9.018c-1.156,-2.596 -2.768,-5.124 -4.79,-7.511l-0.052,-0.06c-0.138,-0.157 -0.269,-0.318 -0.4,-0.48c0.2,-0.02 0.4,-0.041 0.603,-0.054l0.078,-0.006c3.114,-0.257 6.037,-0.904 8.684,-1.919c2.91,-1.113 5.509,-2.8 7.722,-5.013c2.213,-2.213 3.899,-4.811 5.012,-7.719c1.016,-2.65 1.662,-5.573 1.92,-8.687l0.007,-0.078c0.013,-0.203 0.033,-0.403 0.054,-0.604c0.161,0.132 0.322,0.263 0.48,0.402l0.059,0.051c2.388,2.022 4.916,3.634 7.508,4.789c2.851,1.274 5.886,1.92 9.021,1.92c3.135,0 6.17,-0.646 9.019,-1.918c2.595,-1.157 5.122,-2.769 7.51,-4.791l0.06,-0.051c0.157,-0.139 0.319,-0.27 0.48,-0.401c0.02,0.201 0.041,0.401 0.054,0.603l0.006,0.078c0.258,3.114 0.904,6.036 1.919,8.684c1.114,2.911 2.801,5.509 5.014,7.722c2.213,2.213 4.811,3.9 7.718,5.012c2.651,1.016 5.575,1.663 8.688,1.92l0.078,0.006c0.202,0.013 0.402,0.034 0.602,0.054c-0.131,0.162 -0.262,0.323 -0.4,0.48l-0.052,0.06c-2.021,2.388 -3.633,4.915 -4.789,7.508c-1.273,2.851 -1.919,5.886 -1.919,9.021c0,3.135 0.646,6.17 1.918,9.018Zm4.059,-48.982c3.846,3.847 5.487,9.124 4.875,14.189c-1.188,-0.25 -2.406,-0.423 -3.65,-0.507c-2.233,-0.188 -4.293,-0.639 -6.125,-1.342c-1.699,-0.65 -3.216,-1.636 -4.511,-2.93c-1.294,-1.294 -2.28,-2.812 -2.931,-4.513c-0.701,-1.829 -1.152,-3.889 -1.34,-6.123c-0.084,-1.243 -0.257,-2.461 -0.508,-3.65c5.065,-0.612 10.343,1.029 14.19,4.876Zm25.775,39.964c0,-9.241 -4.825,-17.455 -12.137,-22.165c1.866,-8.529 -0.531,-17.79 -7.089,-24.348c-6.559,-6.559 -15.82,-8.955 -24.348,-7.089c-4.71,-7.313 -12.925,-12.138 -22.166,-12.138c-9.241,0 -17.456,4.825 -22.165,12.138c-8.529,-1.866 -17.79,0.53 -24.348,7.089c-6.559,6.558 -8.955,15.819 -7.09,24.348c-7.312,4.71 -12.137,12.924 -12.137,22.165c0,9.241 4.825,17.456 12.137,22.165c-1.865,8.529 0.531,17.79 7.09,24.348c5.121,5.122 11.89,7.71 18.672,7.709c1.904,0 3.809,-0.205 5.679,-0.615c4.71,7.31 12.923,12.133 22.162,12.133c9.241,0 17.456,-4.825 22.166,-12.137c8.528,1.866 17.789,-0.531 24.348,-7.09c6.558,-6.558 8.955,-15.819 7.089,-24.348c7.312,-4.71 12.137,-12.924 12.137,-22.165Z" style="fill:url(#_Linear1);"/><path d="M211.065,207.931c3.324,0.337 6.357,1.624 8.839,3.579c1.751,-2.695 2.952,-5.638 3.616,-8.675c-2.634,-1.697 -5.59,-2.941 -8.763,-3.61c-0.375,3.111 -1.601,6.139 -3.692,8.706Z" style="fill:#502c87;fill-rule:nonzero;"/><path d="M211.065,207.931c3.324,0.337 6.357,1.624 8.839,3.579c1.751,-2.695 2.952,-5.638 3.616,-8.675c-2.634,-1.697 -5.59,-2.941 -8.763,-3.61c-0.375,3.111 -1.601,6.139 -3.692,8.706Z" style="fill:#502c87;fill-rule:nonzero;"/><path d="M152.849,266.148c-2.568,2.09 -5.596,3.316 -8.707,3.692c0.67,3.174 1.915,6.132 3.613,8.767c3.035,-0.664 5.978,-1.869 8.673,-3.62c-1.956,-2.482 -3.243,-5.516 -3.579,-8.839Z" style="fill:#992375;fill-rule:nonzero;"/><path d="M152.849,266.148c-2.568,2.09 -5.596,3.316 -8.707,3.692c0.67,3.174 1.915,6.132 3.613,8.767c3.035,-0.664 5.978,-1.869 8.673,-3.62c-1.956,-2.482 -3.243,-5.516 -3.579,-8.839Z" style="fill:#992375;fill-rule:nonzero;"/><path d="M186.986,266.148c-0.337,3.323 -1.624,6.357 -3.579,8.838c2.696,1.752 5.639,2.952 8.676,3.617c1.696,-2.635 2.94,-5.591 3.609,-8.763c-3.11,-0.376 -6.138,-1.602 -8.706,-3.692Z" style="fill:#6a2a7d;fill-rule:nonzero;"/><path d="M186.986,266.148c-0.337,3.323 -1.624,6.357 -3.579,8.838c2.696,1.752 5.639,2.952 8.676,3.617c1.696,-2.635 2.94,-5.591 3.609,-8.763c-3.11,-0.376 -6.138,-1.602 -8.706,-3.692Z" style="fill:#6a2a7d;fill-rule:nonzero;"/><path d="M211.065,242.069c2.091,2.567 3.317,5.596 3.692,8.706c3.173,-0.669 6.129,-1.913 8.763,-3.61c-0.664,-3.036 -1.865,-5.98 -3.616,-8.675c-2.482,1.955 -5.515,3.242 -8.839,3.579Z" style="fill:#502c87;fill-rule:nonzero;"/><path d="M211.065,242.069c2.091,2.567 3.317,5.596 3.692,8.706c3.173,-0.669 6.129,-1.913 8.763,-3.61c-0.664,-3.036 -1.865,-5.98 -3.616,-8.675c-2.482,1.955 -5.515,3.242 -8.839,3.579Z" style="fill:#502c87;fill-rule:nonzero;"/><path d="M186.986,183.852c2.568,-2.09 5.596,-3.316 8.706,-3.692c-0.669,-3.172 -1.913,-6.128 -3.609,-8.762c-3.037,0.664 -5.98,1.865 -8.676,3.616c1.955,2.481 3.242,5.515 3.579,8.838Z" style="fill:#6a2a7d;fill-rule:nonzero;"/><path d="M186.986,183.852c2.568,-2.09 5.596,-3.316 8.706,-3.692c-0.669,-3.172 -1.913,-6.128 -3.609,-8.762c-3.037,0.664 -5.98,1.865 -8.676,3.616c1.955,2.481 3.242,5.515 3.579,8.838Z" style="fill:#6a2a7d;fill-rule:nonzero;"/><path d="M152.849,183.851c0.336,-3.323 1.623,-6.356 3.579,-8.837c-2.696,-1.751 -5.64,-2.952 -8.676,-3.616c-1.697,2.634 -2.941,5.589 -3.61,8.761c3.111,0.376 6.139,1.602 8.707,3.692Z" style="fill:#992375;fill-rule:nonzero;"/><path d="M152.849,183.851c0.336,-3.323 1.623,-6.356 3.579,-8.837c-2.696,-1.751 -5.64,-2.952 -8.676,-3.616c-1.697,2.634 -2.941,5.589 -3.61,8.761c3.111,0.376 6.139,1.602 8.707,3.692Z" style="fill:#992375;fill-rule:nonzero;"/><path d="M128.769,207.931c-2.09,-2.567 -3.316,-5.595 -3.692,-8.706c-3.172,0.669 -6.128,1.913 -8.763,3.61c0.665,3.037 1.865,5.98 3.617,8.675c2.481,-1.955 5.515,-3.242 8.838,-3.579Z" style="fill:#b71e74;fill-rule:nonzero;"/><path d="M128.769,207.931c-2.09,-2.567 -3.316,-5.595 -3.692,-8.706c-3.172,0.669 -6.128,1.913 -8.763,3.61c0.665,3.037 1.865,5.98 3.617,8.675c2.481,-1.955 5.515,-3.242 8.838,-3.579Z" style="fill:#b71e74;fill-rule:nonzero;"/><path d="M128.769,242.069c-3.323,-0.337 -6.357,-1.624 -8.838,-3.579c-1.752,2.695 -2.952,5.639 -3.617,8.675c2.635,1.697 5.591,2.941 8.763,3.61c0.376,-3.11 1.602,-6.139 3.692,-8.706Z" style="fill:#b71e74;fill-rule:nonzero;"/><path d="M128.769,242.069c-3.323,-0.337 -6.357,-1.624 -8.838,-3.579c-1.752,2.695 -2.952,5.639 -3.617,8.675c2.635,1.697 5.591,2.941 8.763,3.61c0.376,-3.11 1.602,-6.139 3.692,-8.706Z" style="fill:#b71e74;fill-rule:nonzero;"/><path d="M595.493,198.167c-0.237,0.581 -0.554,1.086 -0.978,1.526c-0.422,0.441 -0.913,0.805 -1.484,1.065c-0.583,0.261 -1.196,0.405 -1.864,0.419c-0.668,0.014 -1.285,-0.105 -1.866,-0.341c-0.582,-0.237 -1.086,-0.554 -1.514,-0.978c-0.441,-0.423 -0.778,-0.913 -1.039,-1.485c-0.261,-0.57 -0.391,-1.183 -0.404,-1.825c-0.013,-0.641 0.091,-1.259 0.329,-1.84c0.236,-0.581 0.553,-1.098 0.976,-1.539c0.423,-0.441 0.914,-0.792 1.498,-1.053c0.571,-0.261 1.183,-0.404 1.851,-0.418c0.668,-0.014 1.285,0.091 1.867,0.329c0.581,0.236 1.085,0.567 1.526,0.989c0.428,0.424 0.766,0.915 1.026,1.485c0.26,0.571 0.391,1.184 0.405,1.826c0.013,0.641 -0.093,1.259 -0.329,1.84Zm-0.57,-3.472c-0.233,-0.506 -0.53,-0.945 -0.904,-1.317c-0.388,-0.372 -0.826,-0.651 -1.341,-0.863c-0.515,-0.212 -1.08,-0.305 -1.669,-0.293c-0.603,0.012 -1.15,0.129 -1.656,0.361c-0.506,0.234 -0.945,0.557 -1.317,0.945c-0.371,0.387 -0.65,0.838 -0.849,1.353c-0.212,0.515 -0.305,1.067 -0.293,1.656c0.012,0.589 0.128,1.124 0.347,1.63c0.221,0.506 0.518,0.945 0.905,1.317c0.388,0.372 0.839,0.664 1.354,0.876c0.515,0.212 1.067,0.305 1.657,0.293c0.601,-0.012 1.162,-0.141 1.668,-0.375c0.506,-0.233 0.932,-0.543 1.303,-0.93c0.372,-0.388 0.651,-0.852 0.863,-1.367c0.199,-0.515 0.293,-1.054 0.281,-1.643c-0.013,-0.589 -0.128,-1.137 -0.349,-1.643Zm-1.876,1.715c-0.192,0.253 -0.45,0.455 -0.775,0.579l1.269,1.782l-1.297,0.026l-1.106,-1.601l-0.878,0.018l0.034,1.624l-1.113,0.022l-0.104,-5.04l2.239,-0.046c0.602,-0.012 1.089,0.122 1.449,0.402c0.36,0.294 0.551,0.696 0.562,1.22c0.009,0.419 -0.089,0.762 -0.28,1.014Zm-1.092,-1.483c-0.159,-0.115 -0.383,-0.176 -0.658,-0.17l-1.087,0.022l0.03,1.479l1.113,-0.022c0.275,-0.006 0.497,-0.076 0.638,-0.223c0.141,-0.134 0.216,-0.306 0.211,-0.529c-0.005,-0.248 -0.088,-0.443 -0.247,-0.557Z" style="fill:#fff;fill-rule:nonzero;"/></g><defs><linearGradient id="_Linear1" x1="0" y1="0" x2="1" y2="0" gradientUnits="userSpaceOnUse" gradientTransform="matrix(131.48,0,0,131.48,104.177,225)"><stop offset="0" style="stop-color:#ed167f;stop-opacity:1"/><stop offset="0.2" style="stop-color:#e4068b;stop-opacity:1"/><stop offset="1" style="stop-color:#753c97;stop-opacity:1"/></linearGradient></defs></svg>